<?xml version="1.0" encoding="iso-8859-1"?>
<!-- Generator: Adobe Illustrator 19.0.0, SVG Export Plug-In . SVG Version: 6.00 Build 0)  -->
<svg xmlns="http://www.w3.org/2000/svg" xmlns:xlink="http://www.w3.org/1999/xlink" version="1.1" id="Capa_1" x="0px" y="0px" viewBox="0 0 496 496" style="enable-background:new 0 0 496 496;" xml:space="preserve">
<g>
	<g>
		<g>
			<path d="M173.44,188c0-11.024-8.976-20-20-20s-20,8.976-20,20s8.976,20,20,20S173.44,199.024,173.44,188z M153.44,192     c-2.208,0-4-1.792-4-4s1.792-4,4-4s4,1.792,4,4S155.648,192,153.44,192z"/>
			<path d="M257.44,208c11.024,0,20-8.976,20-20s-8.976-20-20-20s-20,8.976-20,20S246.416,208,257.44,208z M257.44,184     c2.208,0,4,1.792,4,4s-1.792,4-4,4s-4-1.792-4-4S255.232,184,257.44,184z"/>
			<path d="M245.44,263.976V256h-16v7.976c0,4.424-3.6,8.024-8.024,8.024h-31.944c-4.432,0-8.032-3.6-8.032-8.024V256h-16v7.976     c0,13.248,10.776,24.024,24.024,24.024h31.944C234.664,288,245.44,277.224,245.44,263.976z"/>
			<path d="M493.44,376c0-30.88-25.12-56-56-56h-80c-19.464,0-36.624,9.992-46.664,25.104c-2.656-0.64-5.336-1.2-8.032-1.608     l-41.304-6.36v-8.288c26.92-15.624,46.784-42.072,53.488-73.4c19.44-2.712,34.512-19.272,34.512-39.448v-72     c0-79.4-64.6-144-144-144s-144,64.6-144,144v72c0,20.176,15.072,36.736,34.512,39.448c6.704,31.328,26.568,57.776,53.488,73.4     v8.288l-41.304,6.352c-36.96,5.688-68.048,32.424-79.2,68.112L2.56,496h322.88h72h72c13.232,0,24-10.768,24-24v-24h-4.448     c2.752-4.728,4.448-10.144,4.448-16c0-5.856-1.696-11.272-4.448-16h4.448V376z M317.104,238.632     c0.128-2.208,0.336-4.392,0.336-6.632v-38.528c9.288,3.312,16,12.112,16,22.528C333.44,226.536,326.568,235.416,317.104,238.632z      M77.44,216c0-10.416,6.712-19.216,16-22.528V232c0,2.24,0.208,4.424,0.336,6.632C84.312,235.416,77.44,226.536,77.44,216z      M95.128,176.64c-6.584,1.056-12.584,3.704-17.688,7.568V144c0-70.576,57.424-128,128-128s128,57.424,128,128v40.208     c-4.672-3.536-10.056-6.184-16-7.392V120h-8c-17.648,0-32-14.352-32-32h-16c0,17.648-14.352,32-32,32h-64     C131.016,120,102.192,144.304,95.128,176.64z M109.44,232v-40c0-30.88,25.12-56,56-56h64c16.672,0,31.392-8.544,40-21.496     c7.2,10.832,18.672,18.584,32,20.824V232c0,52.936-43.064,96-96,96C152.504,328,109.44,284.936,109.44,232z M245.44,336.488     v7.408c-0.064,2.464-1.752,24.104-40,24.104s-39.936-21.64-40-24v-7.512c12.44,4.784,25.896,7.512,40,7.512     S233,341.272,245.44,336.488z M305.888,448h-4.448v24c0,2.816,0.576,5.488,1.472,8H102.504l6.872-55.008l-15.872-1.984     L86.376,480H24.32l19.888-63.624c9.344-29.904,35.392-52.312,66.36-57.072l40.6-6.248c3.752,11.8,15.76,30.944,54.272,30.944     c38.512,0,50.52-19.144,54.272-30.944l40.592,6.248c1.168,0.176,2.32,0.472,3.488,0.696c-1.512,5.08-2.352,10.44-2.352,16v40     h4.448c-2.752,4.728-4.448,10.144-4.448,16C301.44,437.856,303.136,443.272,305.888,448z M477.44,472c0,4.408-3.592,8-8,8h-72     h-72c-4.408,0-8-3.592-8-8v-8h16h16v-16h-16c-8.824,0-16-7.176-16-16c0-8.824,7.176-16,16-16h52.688l32,32H365.44v16h88h8h16V472     z M408.752,416h36.04l-16.024,20.024L408.752,416z M461.44,448h-8h-13.752l25.264-31.584c7.136,1.608,12.488,7.968,12.488,15.584     C477.44,440.824,470.264,448,461.44,448z M477.44,400h-16h-128h-16v-24c0-22.056,17.944-40,40-40h80c22.056,0,40,17.944,40,40     V400z"/>
			<rect x="341.44" y="352" width="16" height="16"/>
			<rect x="373.44" y="368" width="16" height="16"/>
			<rect x="405.44" y="344" width="16" height="16"/>
			<rect x="437.44" y="360" width="16" height="16"/>
		</g>
	</g>
</g>
<g>
</g>
<g>
</g>
<g>
</g>
<g>
</g>
<g>
</g>
<g>
</g>
<g>
</g>
<g>
</g>
<g>
</g>
<g>
</g>
<g>
</g>
<g>
</g>
<g>
</g>
<g>
</g>
<g>
</g>
</svg>
