<?xml version="1.0" encoding="iso-8859-1"?>
<!-- Generator: Adobe Illustrator 19.0.0, SVG Export Plug-In . SVG Version: 6.00 Build 0)  -->
<svg xmlns="http://www.w3.org/2000/svg" xmlns:xlink="http://www.w3.org/1999/xlink" version="1.1" id="Capa_1" x="0px" y="0px" viewBox="0 0 496 496" style="enable-background:new 0 0 496 496;" xml:space="preserve">
<g>
	<g>
		<g>
			<path d="M424.504,411.608c-11.152-35.688-42.24-62.424-79.2-68.112L304,337.136v-8.288c8.096-4.704,15.584-10.336,22.232-16.848     H392V144C392,64.6,327.4,0,248,0S104,64.6,104,144v168h65.768c6.656,6.504,14.136,12.144,22.232,16.848v8.288l-41.304,6.352     c-36.96,5.688-68.048,32.424-79.2,68.112L45.12,496h405.76L424.504,411.608z M368,367.696     c12.656,6.552,23.576,16.168,31.432,28.088c-9.576,3.024-21.768,8.32-31.432,17.056V367.696z M318.488,355.552     c-6.416,19.064-19.368,44.624-32.84,46.112c-7.096,0.808-15.552-5.96-24.272-19.024c22.152-4.232,34.56-18.424,39.856-29.744     L318.488,355.552z M248,368c-30.224,0-38.608-20.92-40-25.176v-6.336c12.44,4.784,25.896,7.512,40,7.512s27.56-2.728,40-7.512     v6.336C286.632,346.984,278.232,368,248,368z M376,296h-36.216c8.408-12.024,14.536-25.736,17.704-40.552     c6.904-0.96,13.2-3.632,18.512-7.648V296z M359.664,238.632C359.792,236.424,360,234.24,360,232v-38.528     c9.288,3.312,16,12.112,16,22.528C376,226.536,369.128,235.416,359.664,238.632z M120,144c0-70.576,57.424-128,128-128     s128,57.424,128,128v40.208c-4.672-3.536-10.056-6.184-16-7.392V176v-16v-16h-16v16H152v-16h-16v16v16v0.808     c-5.944,1.216-11.328,3.856-16,7.392V144z M136,193.472V232c0,2.24,0.208,4.424,0.336,6.632C126.872,235.416,120,226.536,120,216     C120,205.584,126.712,196.784,136,193.472z M120,295.992v-48.2c5.312,4.024,11.608,6.688,18.512,7.648     c3.168,14.816,9.296,28.536,17.704,40.552H120z M152,232v-56h192v56c0,52.936-43.064,96-96,96C195.064,328,152,284.936,152,232z      M194.76,352.896c5.304,11.32,17.712,25.512,39.864,29.744c-8.72,13.072-17.176,19.84-24.28,19.024     c-13.472-1.488-26.424-27.048-32.84-46.112L194.76,352.896z M176,390.776c7.928,13.216,18.776,25.256,32.576,26.792     c1.048,0.12,2.104,0.176,3.144,0.176c12.664,0,24.616-8.76,36.28-26.328c11.664,17.568,23.616,26.328,36.28,26.328     c1.04,0,2.096-0.056,3.144-0.176c13.8-1.536,24.656-13.576,32.576-26.792V432H176V390.776z M128,480H66.88l19.888-63.624     c0.656-2.096,1.576-4.064,2.392-6.088C103.56,414.416,128,424.808,128,448V480z M128,412.832     c-9.656-8.728-21.856-14.032-31.432-17.056c7.856-11.912,18.776-21.528,31.432-28.088V412.832z M352,480H144V361.392     c3-0.824,6.016-1.608,9.128-2.088l6.872-1.056V448h176v-89.752l6.872,1.056c3.112,0.48,6.128,1.264,9.128,2.08V480z M368,448     c0-23.088,24.448-33.528,38.848-37.68c0.816,2.016,1.728,3.968,2.384,6.064L429.12,480H368V448z"/>
			<path d="M312,232h-16c0,26.472-21.528,48-48,48s-48-21.528-48-48h-16c0,35.288,28.712,64,64,64C283.288,296,312,267.288,312,232z     "/>
			<rect x="296" y="192" width="16" height="16"/>
			<rect x="184" y="192" width="16" height="16"/>
			<path d="M248,112c68.592,0,107.512,22.64,107.88,22.856l8.232-13.72c-0.28-0.168-1.736-1.008-4.12-2.216V104     c0-26.472-21.528-48-48-48c-7.08,0-13.976,1.648-20.256,4.576C284.192,43.576,267.288,32,248,32     c-19.288,0-36.192,11.576-43.744,28.584C197.976,57.648,191.088,56,184,56c-26.472,0-48,21.528-48,48v14.92     c-2.384,1.208-3.832,2.048-4.12,2.216l8.224,13.736C140.488,134.64,179.408,112,248,112z M152,104c0-17.648,14.352-32,32-32     c10.264,0,19.976,4.976,25.984,13.32l12.984-9.352c-1.576-2.184-3.368-4.152-5.264-6.016C221.976,57.032,234.064,48,248,48     c13.936,0,26.016,9.032,30.296,21.936c-1.824,1.8-3.568,3.696-5.096,5.8l12.928,9.432C292.136,76.92,301.808,72,312,72     c17.648,0,32,14.352,32,32v8.008C324.824,104.808,292.376,96,248,96c-44.376,0-76.824,8.808-96,16.008V104z"/>
			<rect x="240" y="56" width="16" height="16"/>
			<rect x="312" y="80" width="16" height="16"/>
			<rect x="168" y="80" width="16" height="16"/>
		</g>
	</g>
</g>
<g>
</g>
<g>
</g>
<g>
</g>
<g>
</g>
<g>
</g>
<g>
</g>
<g>
</g>
<g>
</g>
<g>
</g>
<g>
</g>
<g>
</g>
<g>
</g>
<g>
</g>
<g>
</g>
<g>
</g>
</svg>
