<?xml version="1.0" encoding="iso-8859-1"?>
<!-- Generator: Adobe Illustrator 19.0.0, SVG Export Plug-In . SVG Version: 6.00 Build 0)  -->
<svg xmlns="http://www.w3.org/2000/svg" xmlns:xlink="http://www.w3.org/1999/xlink" version="1.1" id="Capa_1" x="0px" y="0px" viewBox="0 0 496 496" style="enable-background:new 0 0 496 496;" xml:space="preserve">
<g>
	<g>
		<g>
			<path d="M424.504,411.608c-11.152-35.688-42.24-62.424-79.2-68.112L304,337.136v-8.288c26.92-15.624,46.784-42.072,53.488-73.4     C376.928,252.736,392,236.176,392,216v-98.84c10.336-12.808,16-28.72,16-45.16c0-39.696-32.304-72-72-72     c-16.04,0-31.416,5.312-44,15.072C279.416,5.312,264.04,0,248,0c-16.04,0-31.416,5.312-44,15.072C191.416,5.312,176.04,0,160,0     c-39.696,0-72,32.304-72,72c0,16.44,5.664,32.352,16,45.16V216c0,20.176,15.072,36.736,34.512,39.448     c6.704,31.328,26.568,57.776,53.488,73.4v8.288l-41.304,6.352c-36.96,5.688-68.048,32.424-79.2,68.112L45.12,496h405.76     L424.504,411.608z M359.664,238.632C359.792,236.424,360,234.24,360,232v-38.528c9.288,3.312,16,12.112,16,22.528     C376,226.536,369.128,235.416,359.664,238.632z M120,216c0-10.416,6.712-19.216,16-22.528V232c0,2.24,0.208,4.424,0.336,6.632     C126.872,235.416,120,226.536,120,216z M137.264,176.68C130.84,177.784,125,180.424,120,184.2V136h224v-16h-40V56h-16v64h-80V88     h-16v32h-72v-8.784l-2-2.264C108.976,98.688,104,85.568,104,72c0-30.88,25.12-56,56-56c14.352,0,28.024,5.472,38.496,15.408     L204,36.632l5.504-5.224C219.976,21.472,233.648,16,248,16s28.024,5.472,38.496,15.408L292,36.632l5.504-5.224     C307.976,21.472,321.648,16,336,16c30.88,0,56,25.12,56,56c0,13.568-4.976,26.688-14,36.952l-2,2.264V120h-16v16h16v48.208     c-4.992-3.784-10.84-6.424-17.264-7.52C355.624,167.04,346.664,160,336,160H160C149.336,160,140.376,167.04,137.264,176.68z      M152,232v-48c0-4.408,3.592-8,8-8h176c4.408,0,8,3.592,8,8v48c0,52.936-43.064,96-96,96C195.064,328,152,284.936,152,232z      M288,336.488v6.336c-1.368,4.16-9.768,25.176-40,25.176c-30.224,0-38.608-20.92-40-25.176v-6.336     c12.44,4.784,25.896,7.512,40,7.512S275.56,341.272,288,336.488z M176,355.784l18.768-2.888C201.056,366.336,217.184,384,248,384     s46.944-17.664,53.232-31.104L320,355.784V392H176V355.784z M128,480H66.88l19.888-63.624     c6.656-21.312,21.88-38.664,41.232-48.688V480z M352,480H144V361.392c3-0.824,6.016-1.608,9.128-2.088l6.872-1.056V408h176     v-49.752l6.872,1.056c3.112,0.48,6.128,1.264,9.128,2.08V480z M368,367.688c19.352,10.024,34.576,27.384,41.232,48.688     L429.12,480H368V367.688z"/>
			<path d="M312,232h-16c0,26.472-21.528,48-48,48s-48-21.528-48-48h-16c0,35.288,28.712,64,64,64C283.288,296,312,267.288,312,232z     "/>
			<rect x="296" y="192" width="16" height="16"/>
			<rect x="184" y="192" width="16" height="16"/>
			<rect x="192" y="56" width="16" height="16"/>
			<path d="M176,416c-13.232,0-24,10.768-24,24s10.768,24,24,24s24-10.768,24-24S189.232,416,176,416z M176,448     c-4.408,0-8-3.592-8-8c0-4.408,3.592-8,8-8s8,3.592,8,8C184,444.408,180.408,448,176,448z"/>
			<path d="M320,416c-13.232,0-24,10.768-24,24s10.768,24,24,24s24-10.768,24-24S333.232,416,320,416z M320,448     c-4.408,0-8-3.592-8-8c0-4.408,3.592-8,8-8c4.408,0,8,3.592,8,8C328,444.408,324.408,448,320,448z"/>
		</g>
	</g>
</g>
<g>
</g>
<g>
</g>
<g>
</g>
<g>
</g>
<g>
</g>
<g>
</g>
<g>
</g>
<g>
</g>
<g>
</g>
<g>
</g>
<g>
</g>
<g>
</g>
<g>
</g>
<g>
</g>
<g>
</g>
</svg>
