<?xml version="1.0" encoding="iso-8859-1"?>
<!-- Generator: Adobe Illustrator 19.0.0, SVG Export Plug-In . SVG Version: 6.00 Build 0)  -->
<svg xmlns="http://www.w3.org/2000/svg" xmlns:xlink="http://www.w3.org/1999/xlink" version="1.1" id="Capa_1" x="0px" y="0px" viewBox="0 0 496 496" style="enable-background:new 0 0 496 496;" xml:space="preserve">
<g>
	<g>
		<path d="M464,348h-26.848C453.504,334.792,464,314.608,464,292v-8h-16v-16h16v-8c0-39.696-32.296-72-72-72h-58.488    C344.968,175.248,352,158.448,352,140v-8h-16v-16h16v-8c0-39.696-32.296-72-72-72h-64c-39.704,0-72,32.304-72,72v8h16v16h-16v8    c0,18.448,7.032,35.248,18.488,48H104c-39.704,0-72,32.304-72,72v8h16v16H32v8c0,22.608,10.496,42.792,26.848,56H32    c-17.648,0-32,14.352-32,32s14.352,32,32,32h32v48h368v-48h32c17.648,0,32-14.352,32-32S481.648,348,464,348z M392,348h-64    c-28.168,0-51.536-20.896-55.432-48H400v-16H288v-16h144v16h-16v16h31.432C443.544,327.104,420.168,348,392,348z M224,284v-16h16    v-8c0-18.448-7.032-35.248-18.488-48h52.976C263.032,224.752,256,241.552,256,260v8h16v16h-16v8c0,22.608,10.496,42.792,26.848,56    H213.16c16.344-13.208,26.84-33.392,26.84-56v-8H224z M392,204c28.168,0,51.536,20.896,55.432,48H272.568    c3.888-27.104,27.264-48,55.432-48H392z M216,52h64c28.168,0,51.536,20.896,55.432,48H160.568C164.464,72.896,187.832,52,216,52z     M160.568,148H288v-16H176v-16h144v16h-16v16h31.432c-3.888,27.104-27.264,48-55.432,48h-64    C187.832,196,164.464,175.104,160.568,148z M104,204h64c28.168,0,51.536,20.896,55.432,48H48.568    C52.464,224.896,75.832,204,104,204z M208,268v16H64v-16H208z M48.568,300h174.856c-3.888,27.104-27.264,48-55.432,48h-64    C75.832,348,52.464,327.104,48.568,300z M464,396h-64v16h16v32H80v-32h304v-16H32c-8.824,0-16-7.176-16-16c0-8.824,7.176-16,16-16    h72h64h160h64h72c8.824,0,16,7.176,16,16C480,388.824,472.824,396,464,396z"/>
	</g>
</g>
<g>
</g>
<g>
</g>
<g>
</g>
<g>
</g>
<g>
</g>
<g>
</g>
<g>
</g>
<g>
</g>
<g>
</g>
<g>
</g>
<g>
</g>
<g>
</g>
<g>
</g>
<g>
</g>
<g>
</g>
</svg>
