<?xml version="1.0" encoding="iso-8859-1"?>
<!-- Generator: Adobe Illustrator 19.0.0, SVG Export Plug-In . SVG Version: 6.00 Build 0)  -->
<svg xmlns="http://www.w3.org/2000/svg" xmlns:xlink="http://www.w3.org/1999/xlink" version="1.1" id="Capa_1" x="0px" y="0px" viewBox="0 0 496 496" style="enable-background:new 0 0 496 496;" xml:space="preserve">
<g>
	<g>
		<g>
			<rect x="176" y="224" width="16" height="16"/>
			<path d="M406.232,325.784c1.176-2.68,1.768-5.536,1.768-8.488c0-11.744-9.552-21.296-21.296-21.296h-31.76     c4.464-16.856,8.392-33.912,11.44-51.192c0.088-0.12,0.216-0.288,0.272-0.376l-0.192-0.136c5.4-30.712,8.584-61.952,9.36-93.28     c0.144-6.056-2.128-11.8-6.384-16.16c-4.256-4.36-10.2-6.856-16.296-6.856c-0.52,0-1.008,0.168-1.52,0.208     c-1.48-13.904-10.792-25.392-23.528-29.968C332.968,92.096,336,84.432,336,76c0-19.848-16.152-36-36-36h-4.728     c-3.32-18.144-17.096-31.032-23.472-36.144C268.712,1.368,264.768,0,260.712,0h-1.6c-9.744,0-17.576,7.704-17.832,17.536     c-0.192,7.528-3.952,12.256-11.808,14.872c-15.152,5.048-24.504,18.816-22.248,32.728c0.36,2.256,1.168,4.584,2.296,6.864H208     c-6.728,0-12.96,2.112-18.12,5.672l-39.4-65.64c-6.864-11.44-22.08-15.4-33.88-8.84c-5.888,3.272-10.072,8.584-11.784,14.976     c-1.68,6.272-0.76,12.808,2.6,18.4l55.2,91.952c-1.248-0.224-2.488-0.52-3.776-0.52c-6.096,0-12.024,2.496-16.28,6.856     c-4.256,4.36-6.52,10.104-6.384,16.168c0.672,27.16,3.32,54.224,7.48,80.968H112c-13.232,0-24,10.768-24,24     c0,1.224,1.12,119.336,93.52,149.296l-33.088,49.632c-2.904,4.36-4.432,9.432-4.432,14.656C144,484.152,155.848,496,170.424,496     h171.16C356.152,496,368,484.152,368,469.576c0-5.224-1.528-10.296-4.44-14.656l-32.216-48.32     C371.76,397.648,398.528,343.448,406.232,325.784z M208,120c-8.824,0-16-7.176-16-16s7.176-16,16-16h48V72h-16     c-9.68,0-16.032-3.52-16.984-9.424c-0.848-5.256,2.832-12.096,11.512-14.992c14.28-4.76,22.36-15.28,22.744-29.632     c0.024-1.112,0.824-1.952,1.84-1.952h1.6c0.296,0,0.736,0.056,1.088,0.336C267.264,20.728,280,32.592,280,48v8h20     c11.032,0,20,8.976,20,20s-8.968,20-20,20h-4h-16v16h16h4h16c11.032,0,20,8.976,20,20c0,1.752-0.272,3.448-0.712,5.104     c-0.608,0.792-1.32,1.488-1.832,2.368C325.504,153.112,304.856,176,256,176c-44.792,0-65.84-19.216-75.168-32.936     C184.584,138.688,190.096,136,196,136h36v-16H208z M121.136,28.328c-1.112-1.848-1.416-3.984-0.872-6.024     c0.576-2.16,2.032-3.976,4.096-5.12c4.336-2.416,9.92-1.04,12.4,3.088l42.256,70.384C177.128,94.728,176,99.224,176,104     c0,7.024,2.272,13.528,6.128,18.808c-1.128,0.472-2.168,1.136-3.24,1.72L121.136,28.328z M154.008,146.04     c2.944-3.016,8.416-2.44,10.704,1.496C172.512,160.904,197.024,192,256,192s83.488-31.096,91.28-44.472     c2.288-3.912,7.76-4.512,10.704-1.496c1.224,1.256,1.88,2.888,1.832,4.6c0,0.04-0.008,0.088-0.008,0.128     c-1.856,4.04-7.848,15.696-20.296,27.416l10.968,11.648c2.92-2.744,5.432-5.472,7.776-8.152     c-1.416,18.672-3.808,37.224-6.912,55.624C344.776,242.472,321.328,256,256,256c-65.696,0-89.008-13.664-95.344-18.64     c-3.096-18.344-5.48-36.856-6.896-55.48C170.656,201.296,201.88,224,256,224c32.2,0,59.912-8.144,82.368-24.208l-9.312-13.016     C309.376,200.856,284.8,208,256,208c-74.624,0-99.608-47.76-103.808-57.184c0-0.056-0.008-0.12-0.008-0.176     C152.136,148.928,152.792,147.296,154.008,146.04z M328,288c-8.824,0-16-7.176-16-16v-4.128c15.864-2.688,27.256-6.344,35.44-10     c-1.336,6.528-2.672,13.048-4.208,19.52l-0.136-0.048C340.832,283.72,334.776,288,328,288z M336.68,302.728     c-0.192,0.672-0.408,1.336-0.6,2.008c-0.016-0.248-0.08-0.488-0.08-0.736v-1.112C336.224,302.832,336.456,302.792,336.68,302.728     z M176.144,305.448c-0.264-0.912-0.568-1.808-0.832-2.728c0.232,0.072,0.464,0.112,0.688,0.168V304     C176,304.496,176.128,304.96,176.144,305.448z M168.904,277.344l-0.136,0.048c-1.544-6.464-2.88-12.992-4.208-19.52     c8.184,3.656,19.576,7.32,35.44,10V272c0,8.824-7.176,16-16,16C177.224,288,171.168,283.72,168.904,277.344z M288,304v-1.136     c6.32-1.64,11.832-5.144,16-9.92c4.168,4.776,9.68,8.28,16,9.92V304c0,8.824-7.176,16-16,16C295.176,320,288,312.824,288,304z      M296,334.864V336c0,8.824-7.176,16-16,16c-8.824,0-16-7.176-16-16v-1.136c6.32-1.64,11.832-5.144,16-9.92     C284.168,329.72,289.68,333.224,296,334.864z M296,272c0,8.824-7.176,16-16,16c-8.824,0-16-7.176-16-16v-0.136     c11.952-0.208,22.608-0.848,32-1.84V272z M272,302.864V304c0,8.824-7.176,16-16,16c-8.824,0-16-7.176-16-16v-1.136     c6.32-1.64,11.832-5.144,16-9.92C260.168,297.72,265.68,301.224,272,302.864z M248,334.864V336c0,8.824-7.176,16-16,16     c-8.824,0-16-7.176-16-16v-1.136c6.32-1.64,11.832-5.144,16-9.92C236.168,329.72,241.68,333.224,248,334.864z M248,272     c0,8.824-7.176,16-16,16c-8.824,0-16-7.176-16-16v-1.984c9.392,0.992,20.048,1.632,32,1.84V272z M224,302.864V304     c0,8.824-7.176,16-16,16c-8.824,0-16-7.176-16-16v-1.136c6.32-1.64,11.832-5.144,16-9.92     C212.168,297.72,217.68,301.224,224,302.864z M200,334.864V336c0,6.208-3.592,11.544-8.768,14.192     c-3.632-9.568-7.016-19.248-10.16-29.048C185.368,327.864,192.088,332.808,200,334.864z M208,356.936     c5.872,6.728,14.392,11.064,24,11.064c9.608,0,18.128-4.336,24-11.056c5.872,6.72,14.392,11.056,24,11.056     c9.608,0,18.128-4.336,24-11.056c3.024,3.456,6.704,6.296,10.936,8.208c-2.616,6.344-5.344,12.624-8.184,18.848H205.248     c-2.832-6.224-5.568-12.504-8.184-18.856C201.304,363.24,204.984,360.4,208,356.936z M312,336v-1.136     c6.328-1.648,11.848-5.16,16.016-9.944c0.416,0.48,0.832,0.96,1.28,1.416c-2.656,8.048-5.536,15.976-8.528,23.856     C315.592,347.544,312,342.208,312,336z M134.504,352H152v-16h-27.488c-2.816-5.304-5.248-10.664-7.344-16H136v-16h-24.272     c-1.616-5.6-2.888-10.984-3.904-16H128v-16h-22.752c-1.168-9.568-1.248-15.744-1.248-16c0-4.408,3.584-8,8-8h34.208     c9.08,49.848,24.168,98.2,44.72,143.184l-0.104,0.152C165.28,384.16,147.224,369.344,134.504,352z M350.248,463.792     c1.144,1.72,1.752,3.72,1.752,5.784c0,5.752-4.672,10.424-10.424,10.424h-8.936l-29.696-51.968l-13.888,7.936L314.216,480H264     v-48h-16v48h-50.216l25.16-44.032l-13.888-7.936L179.36,480h-8.936c-5.752,0-10.424-4.672-10.424-10.424     c0-2.064,0.608-4.064,1.752-5.784L204.28,400h103.44L350.248,463.792z M321.512,391.848l-0.44-0.656     c11.616-25.432,21.472-51.928,29.488-79.184h36.144c2.92-0.008,5.296,2.368,5.296,5.288c0,0.744-0.144,1.424-0.432,2.088     C388.376,326.712,359.552,390.168,321.512,391.848z"/>
		</g>
	</g>
</g>
<g>
</g>
<g>
</g>
<g>
</g>
<g>
</g>
<g>
</g>
<g>
</g>
<g>
</g>
<g>
</g>
<g>
</g>
<g>
</g>
<g>
</g>
<g>
</g>
<g>
</g>
<g>
</g>
<g>
</g>
</svg>
