<?xml version="1.0" encoding="iso-8859-1"?>
<!-- Generator: Adobe Illustrator 19.0.0, SVG Export Plug-In . SVG Version: 6.00 Build 0)  -->
<svg xmlns="http://www.w3.org/2000/svg" xmlns:xlink="http://www.w3.org/1999/xlink" version="1.1" id="Capa_1" x="0px" y="0px" viewBox="0 0 496 496" style="enable-background:new 0 0 496 496;" xml:space="preserve">
<g>
	<g>
		<path d="M496,288V112c0-30.88-25.128-56-56-56H296c-30.872,0-56,25.12-56,56v40.464c-5.088-5.208-12.16-8.464-20-8.464h-4.44    c1.984-4.32,2.928-8.68,2.824-13.072c-0.336-14-11.264-23.92-17.792-29.848c-1.112-1-2.12-1.912-2.936-2.736    c-7.568-7.568-8.192-17.784-7.392-25.016c0.496-4.448-0.92-8.896-3.872-12.2C183.48,57.864,179.296,56,174.352,56    c-7.008,0-13,4.656-14.92,11.584c-3.04,10.952-16.256,25.92-21.088,30.76c-6.168,6.16-22.888,22.888-10.52,45.656H116    c-15.44,0-28,12.56-28,28c0,4.312,1.064,8.352,2.808,12H56c-17.648,0-32,14.352-32,32v70.64c0,8.584,3.144,16.384,8.256,22.304    C32.16,309.968,32,310.976,32,312c0,5.856,1.696,11.272,4.448,16H32c-17.648,0-32,14.352-32,32s14.352,32,32,32h32v48h368v-48h32    c17.648,0,32-14.352,32-32c0-13.264-8.112-24.656-19.632-29.504C488.36,320.216,496,304.992,496,288z M272,200    c8.824,0,16,7.176,16,16c0,8.824-7.176,16-16,16H136v-32h72h12H272z M272,296c8.824,0,16,7.176,16,16c0,8.824-7.176,16-16,16H64    c-6.192,0-11.52-3.576-14.176-8.736c1.464,0.296,2.928,0.608,4.464,0.688c0.584,0.032,1.168,0.048,1.744,0.048    c8.232,0,15.984-3.088,21.992-8.784c4.36-4.136,7.328-9.472,8.824-15.216H240v-16H88v-12.272    c5.304,3.08,11.384,4.584,17.712,4.224c13.864-0.728,25.144-10.672,28.864-23.952H272c8.824,0,16,7.176,16,16    c0,8.824-7.176,16-16,16h-16v16H272z M116,160h47.312l-13.656-13.656c-18.344-18.344-8.168-28.512,0-36.688    c2.08-2.08,20.48-20.824,24.704-38.104c-1.68,15.16,2.568,28.688,11.984,38.104c0.976,0.976,2.168,2.072,3.496,3.264    c5.224,4.744,12.384,11.248,12.552,18.392c0.112,4.52-2.6,9.576-8.048,15.024L180.688,160H220c6.616,0,12,5.384,12,12    c0,6.616-5.384,12-12,12h-12h-72h-8h-12c-6.616,0-12-5.384-12-12C104,165.384,109.384,160,116,160z M40,216    c0-8.824,7.176-16,16-16h60h4v38.64c0,9.12-6.792,16.896-15.136,17.336c-4.32,0.208-8.656-1.312-11.872-4.368    C89.776,248.552,88,244.432,88,240v-16H72v16v8v40c0,4.432-1.776,8.552-4.992,11.608c-3.216,3.048-7.592,4.6-11.872,4.368    C46.792,303.536,40,295.76,40,286.64V216z M480,360c0,8.824-7.176,16-16,16h-64v16h16v32H80v-32h304v-16H32    c-8.824,0-16-7.176-16-16c0-8.824,7.176-16,16-16h32h208h192C472.824,344,480,351.176,480,360z M360,176v56h-60.448    c2.752-4.728,4.448-10.144,4.448-16c0-11.792-6.48-22-16-27.552V176H360z M288,160v-48c0-4.408,3.584-8,8-8h64v56H288z     M299.552,248H360v48h-60.448c-1.768-3.024-3.984-5.712-6.608-8c6.72-5.872,11.056-14.4,11.056-24    C304,258.144,302.304,252.728,299.552,248z M440,328H299.552c2.752-4.728,4.448-10.144,4.448-16h136c13.232,0,24-10.768,24-24V112    c0-13.232-10.768-24-24-24H296c-13.232,0-24,10.768-24,24v72h-16v-72c0-22.056,17.944-40,40-40h144c22.056,0,40,17.944,40,40v176    C480,310.056,462.056,328,440,328z M376,232v-56h72v56h-16v16h16v40c0,4.408-3.584,8-8,8h-64v-48h40v-16H376z M376,160v-56h64    c4.416,0,8,3.592,8,8v48H376z"/>
	</g>
</g>
<g>
</g>
<g>
</g>
<g>
</g>
<g>
</g>
<g>
</g>
<g>
</g>
<g>
</g>
<g>
</g>
<g>
</g>
<g>
</g>
<g>
</g>
<g>
</g>
<g>
</g>
<g>
</g>
<g>
</g>
</svg>
