<?xml version="1.0" encoding="iso-8859-1"?>
<!-- Generator: Adobe Illustrator 19.0.0, SVG Export Plug-In . SVG Version: 6.00 Build 0)  -->
<svg xmlns="http://www.w3.org/2000/svg" xmlns:xlink="http://www.w3.org/1999/xlink" version="1.1" id="Capa_1" x="0px" y="0px" viewBox="0 0 496 496" style="enable-background:new 0 0 496 496;" xml:space="preserve">
<g>
	<g>
		<g>
			<path d="M248,80c-35.288,0-64,28.712-64,64c0,35.288,28.712,64,64,64c35.288,0,64-28.712,64-64C312,108.712,283.288,80,248,80z      M248,192c-26.472,0-48-21.528-48-48s21.528-48,48-48s48,21.528,48,48S274.472,192,248,192z"/>
			<path d="M293.736,254.408c18.096,9.392,41.016,6.496,56.088-8.584c15.088-15.08,17.968-37.992,8.592-56.088     C377.832,183.568,392,165.328,392,144s-14.168-39.568-33.592-45.736c9.384-18.096,6.496-41.008-8.584-56.088     c-15.08-15.088-38.008-17.976-56.088-8.584C287.568,14.168,269.328,0,248,0s-39.568,14.168-45.736,33.584     c-18.072-9.36-41-6.496-56.088,8.592c-15.088,15.08-17.968,37.992-8.584,56.088C118.168,104.432,104,122.672,104,144     s14.168,39.568,33.584,45.736c-9.376,18.096-6.496,41.008,8.592,56.088c15.08,15.088,38,17.976,56.088,8.584     C208.432,273.832,226.672,288,248,288S287.568,273.832,293.736,254.408z M279.952,240.36C279.76,257.808,265.424,272,248,272     s-31.76-14.192-31.952-31.64l-0.208-18.704l-13.384,13.08c-12.48,12.192-32.656,12.096-44.96-0.224     c-12.32-12.312-12.424-32.488-0.232-44.96l13.072-13.384l-18.696-0.208C134.184,175.76,120,161.424,120,144     s14.192-31.76,31.64-31.952l18.704-0.208l-13.08-13.384c-12.192-12.48-12.096-32.648,0.224-44.96     c12.32-12.328,32.488-12.432,44.96-0.232l13.384,13.072l0.208-18.696C216.24,30.184,230.576,16,248,16     s31.76,14.184,31.952,31.632l0.208,18.696l13.384-13.072c12.48-12.184,32.64-12.088,44.96,0.232     c12.32,12.312,12.424,32.488,0.224,44.96l-13.08,13.384l18.704,0.208C361.808,112.24,376,126.576,376,144     s-14.184,31.76-31.632,31.952l-18.696,0.208l13.072,13.384c12.184,12.48,12.088,32.648-0.232,44.96s-32.488,12.424-44.96,0.224     l-13.384-13.08L279.952,240.36z"/>
			<path d="M400,352v-8c0-30.872-25.128-56-56-56c-20.384,0-38.2,10.984-48,27.304C286.2,298.984,268.384,288,248,288     c-20.384,0-38.2,10.984-48,27.304C190.2,298.984,172.384,288,152,288c-30.872,0-56,25.128-56,56v8     c0,9.592,5.696,17.824,13.848,21.664C106.192,378.864,104,385.168,104,392c0,6.832,2.192,13.136,5.848,18.336     C101.696,414.176,96,422.408,96,432v8c0,30.872,25.128,56,56,56c20.384,0,38.2-10.984,48-27.304     c9.8,16.32,27.616,27.304,48,27.304c20.384,0,38.2-10.984,48-27.304c9.8,16.32,27.616,27.304,48,27.304c30.872,0,56-25.128,56-56     v-8c0-9.592-5.696-17.824-13.848-21.664c3.656-5.2,5.848-11.504,5.848-18.336c0-6.832-2.192-13.136-5.848-18.336     C394.304,369.824,400,361.592,400,352z M208,344c0-22.056,17.944-40,40-40c22.056,0,40,17.944,40,40v16h-80V344z M112,344     c0-22.056,17.944-40,40-40c22.056,0,40,17.944,40,40v16h-56h-16c-4.416,0-8-3.584-8-8V344z M192,440c0,22.056-17.944,40-40,40     c-22.056,0-40-17.944-40-40v-8c0-4.416,3.584-8,8-8h16h56V440z M288,440c0,22.056-17.944,40-40,40c-22.056,0-40-17.944-40-40v-16     h80V440z M384,440c0,22.056-17.944,40-40,40c-22.056,0-40-17.944-40-40v-16h16v-16H136c-8.824,0-16-7.176-16-16     c0-8.824,7.176-16,16-16h224c8.824,0,16,7.176,16,16c0,8.824-7.176,16-16,16h-24v16h24h16c4.416,0,8,3.584,8,8V440z M384,352     c0,4.416-3.584,8-8,8h-16h-56v-16c0-22.056,17.944-40,40-40c22.056,0,40,17.944,40,40V352z"/>
		</g>
	</g>
</g>
<g>
</g>
<g>
</g>
<g>
</g>
<g>
</g>
<g>
</g>
<g>
</g>
<g>
</g>
<g>
</g>
<g>
</g>
<g>
</g>
<g>
</g>
<g>
</g>
<g>
</g>
<g>
</g>
<g>
</g>
</svg>
