<?xml version="1.0" encoding="iso-8859-1"?>
<!-- Generator: Adobe Illustrator 19.0.0, SVG Export Plug-In . SVG Version: 6.00 Build 0)  -->
<svg xmlns="http://www.w3.org/2000/svg" xmlns:xlink="http://www.w3.org/1999/xlink" version="1.1" id="Capa_1" x="0px" y="0px" viewBox="0 0 496 496" style="enable-background:new 0 0 496 496;" xml:space="preserve">
<g>
	<g>
		<path d="M464,384h-24v-48v-40v-64c0-26.712-18.816-49.08-43.88-54.64c10.92-7.44,20.136-17.392,26.864-29.472l3.776-6.776    l-144.8-86.664l-16.448-43.872C263.136,4.248,257,0,250.24,0c-4.456,0-8.76,1.84-11.824,5.056c-3.04,3.2-4.664,7.568-4.448,12    c0.304,6.104-2.264,11.92-7.632,17.288c-6.16,6.16-22.76,22.904-10.424,45.656H204c-15.44,0-28,12.56-28,28    c0,4.36,1.088,8.432,2.872,12.112C159.552,120.728,144,136.536,144,156c0,7.4,2.256,14.272,6.096,20H112c-30.88,0-56,25.12-56,56    v152H32c-17.648,0-32,14.352-32,32s14.352,32,32,32h32v48h368v-48h32c17.648,0,32-14.352,32-32S481.648,384,464,384z M424,232v64    v40c0,13.232-10.768,24-24,24s-24-10.768-24-24v-56v-48h-16v48c0,13.232-10.768,24-24,24s-24-10.768-24-24v-88h36.76    c0.096,0,0.192,0.016,0.288,0.016s0.2-0.016,0.296-0.016H384C406.056,192,424,209.944,424,232z M400,376    c9.04,0,17.296-3.128,24-8.208V384h-96v-64.808c2.584,0.528,5.264,0.808,8,0.808c9,0,17.312-2.992,24-8.016V336    C360,358.056,377.944,376,400,376z M397.864,142.464c-6.464,2.032-14.608,3.992-23.576,4.848l-5.8-22.432L397.864,142.464z     M350.296,118.432l7.496,29.008c-6.92-0.648-13.952-2.232-20.752-5.2L350.296,118.432z M322.376,97.28l-21.616,6.008    c-3.776-8.464-6.224-16.752-7.776-23.6L322.376,97.28z M336.728,109.896l-13.384,24.04c-5.88-4.704-10.736-10.28-14.728-16.232    L336.728,109.896z M280.544,95.216c6.064,19.352,17.968,43.2,41.368,57.208c14.304,8.56,29.544,11.464,43.64,11.464    c9.432,0,18.32-1.312,26.096-3.08c-7.376,5.984-15.912,10.408-25.256,12.912c-17.6,4.712-35.952,2.112-51.696-7.312    C289.872,151.544,277.28,123.056,280.544,95.216z M248,304v80h-48V272h48v16h16v-16h32v8c0,13.016,6.344,24.488,16,31.792V384h-48    v-80H248z M180,136h24h12v-16h-12c-6.616,0-12-5.384-12-12c0-6.616,5.384-12,12-12h44V80h-12.528    c-15.208-16.864-5.632-26.528,2.184-34.344c10.84-10.84,12.672-21.976,12.872-29.456L270.704,70    c-15.376,37.872-3.168,82.28,29.616,106H240h-60c-11.024,0-20-8.976-20-20S168.976,136,180,136z M72,232c0-22.056,17.944-40,40-40    h68h60h56v64H72V232z M72,272h48v80h16v-80h48v112h-48v-16h-16v16H72V272z M464,432h-64v16h16v32H80v-32h304v-16H32    c-8.824,0-16-7.176-16-16c0-8.824,7.176-16,16-16h24h384h24c8.824,0,16,7.176,16,16C480,424.824,472.824,432,464,432z"/>
	</g>
</g>
<g>
</g>
<g>
</g>
<g>
</g>
<g>
</g>
<g>
</g>
<g>
</g>
<g>
</g>
<g>
</g>
<g>
</g>
<g>
</g>
<g>
</g>
<g>
</g>
<g>
</g>
<g>
</g>
<g>
</g>
</svg>
