<?xml version="1.0" encoding="iso-8859-1"?>
<!-- Generator: Adobe Illustrator 19.0.0, SVG Export Plug-In . SVG Version: 6.00 Build 0)  -->
<svg xmlns="http://www.w3.org/2000/svg" xmlns:xlink="http://www.w3.org/1999/xlink" version="1.1" id="Capa_1" x="0px" y="0px" viewBox="0 0 496 496" style="enable-background:new 0 0 496 496;" xml:space="preserve">
<g>
	<g>
		<g>
			<path d="M416,0H80C57.944,0,40,17.944,40,40v368c0,19.312,13.768,35.472,32,39.192V464c0,17.648,14.352,32,32,32s32-14.352,32-32     v-16h216v16c0,17.648,14.352,32,32,32s32-14.352,32-32v-16c22.056,0,40-17.944,40-40V40C456,17.944,438.056,0,416,0z M120,464     c0,8.824-7.176,16-16,16s-16-7.176-16-16v-16h32V464z M400,464c0,8.824-7.176,16-16,16c-8.824,0-16-7.176-16-16v-16h32V464z      M440,408c0,13.232-10.768,24-24,24h-64H136H80c-13.232,0-24-10.768-24-24v-40h384V408z M440,352H56V144h384V352z M440,128H56V40     c0-13.232,10.768-24,24-24h336c13.232,0,24,10.768,24,24V128z"/>
			<path d="M248,24c-26.472,0-48,21.528-48,48s21.528,48,48,48s48-21.528,48-48S274.472,24,248,24z M240,102.864     C226.232,99.288,216,86.872,216,72s10.232-27.288,24-30.864V102.864z M256,102.864V41.136c13.768,3.576,24,15.992,24,30.864     S269.768,99.288,256,102.864z"/>
			<path d="M128,32c-22.056,0-40,17.944-40,40c0,22.056,17.944,40,40,40c22.056,0,40-17.944,40-40C168,49.944,150.056,32,128,32z      M128,96c-13.232,0-24-10.768-24-24c0-3.696,0.904-7.152,2.408-10.28l31.88,31.88C135.152,95.096,131.696,96,128,96z      M149.592,82.28l-31.88-31.88c3.136-1.496,6.592-2.4,10.288-2.4c13.232,0,24,10.768,24,24     C152,75.696,151.096,79.152,149.592,82.28z"/>
			<path d="M368,32c-22.056,0-40,17.944-40,40c0,22.056,17.944,40,40,40c22.056,0,40-17.944,40-40C408,49.944,390.056,32,368,32z      M344,72c0-13.232,10.768-24,24-24c3.696,0,7.152,0.904,10.28,2.408l-31.88,31.88C344.904,79.152,344,75.696,344,72z M368,96     c-3.696,0-7.152-0.904-10.28-2.408l31.88-31.88c1.496,3.136,2.4,6.592,2.4,10.288C392,85.232,381.232,96,368,96z"/>
			<path d="M400,176H96v144h304V176z M384,304H112V192h272V304z"/>
			<rect x="160" y="392" width="176" height="16"/>
			<rect x="128" y="272" width="16" height="16"/>
			<rect x="160" y="272" width="88" height="16"/>
		</g>
	</g>
</g>
<g>
</g>
<g>
</g>
<g>
</g>
<g>
</g>
<g>
</g>
<g>
</g>
<g>
</g>
<g>
</g>
<g>
</g>
<g>
</g>
<g>
</g>
<g>
</g>
<g>
</g>
<g>
</g>
<g>
</g>
</svg>
