<?xml version="1.0" encoding="iso-8859-1"?>
<!-- Generator: Adobe Illustrator 19.0.0, SVG Export Plug-In . SVG Version: 6.00 Build 0)  -->
<svg xmlns="http://www.w3.org/2000/svg" xmlns:xlink="http://www.w3.org/1999/xlink" version="1.1" id="Capa_1" x="0px" y="0px" viewBox="0 0 496 496" style="enable-background:new 0 0 496 496;" xml:space="preserve">
<g>
	<g>
		<path d="M304,0c-79.896,0-151.536,49.84-179.608,124.328C51.792,151.736,0,221.92,0,304c0,105.864,86.136,192,192,192h4    c1.36,0,2.68-0.136,4.016-0.2c1.224-0.048,2.448-0.112,3.664-0.184c0.032,0,0.064-0.008,0.096-0.008    c76.96-4.688,141.8-54.896,167.888-123.992C446.16,343.536,496,271.896,496,192C496,86.136,409.864,0,304,0z M254.44,468.52    c7.48-8.992,12.872-19.752,15.576-31.52l0.8,0.544c2.52-3.696,6.792-8.32,12.84-9.328c8.176-1.376,15.608-5.2,21.488-11.08    c5.864-5.864,9.696-13.296,11.072-21.488c1.064-6.368,6.296-10.776,9.328-12.832c6.384-4.352,11.32-10.432,14.28-17.584    c2.96-7.136,3.768-14.928,2.336-22.528c-1.136-6.008,0.032-11.872,3.368-16.976C349.76,319.256,352,311.752,352,304    s-2.24-15.256-6.472-21.704c-3.344-5.12-4.504-10.992-3.376-17c1.432-7.592,0.624-15.384-2.336-22.528    c-2.968-7.152-7.904-13.224-14.28-17.576c-3.032-2.064-8.264-6.472-9.328-12.84c-1.376-8.176-5.2-15.608-11.08-21.496    c-5.864-5.856-13.296-9.688-21.488-11.064c-6.368-1.064-10.776-6.296-12.832-9.328c-4.352-6.376-10.432-11.312-17.576-14.28    c-7.16-2.96-14.936-3.768-22.536-2.336c-6.008,1.152-11.872-0.032-16.976-3.368c-12.92-8.472-30.528-8.464-43.424-0.008    c-5.12,3.344-11.016,4.496-17,3.376c-7.592-1.432-15.384-0.624-22.528,2.336c-7.152,2.968-13.224,7.904-17.576,14.28    c-2.064,3.032-6.472,8.264-12.84,9.328c-8.176,1.376-15.608,5.2-21.496,11.08c-5.856,5.864-9.688,13.296-11.064,21.488    c-1.064,6.368-6.296,10.776-9.328,12.832c-6.376,4.352-11.312,10.432-14.28,17.576c-2.96,7.152-3.768,14.936-2.336,22.536    c1.136,6-0.032,11.872-3.368,16.976C34.24,288.744,32,296.248,32,304s2.24,15.256,6.472,21.712    c3.344,5.112,4.504,10.976,3.376,16.992c-1.432,7.592-0.624,15.392,2.336,22.52c2.96,7.16,7.896,13.232,14.28,17.584    c3.032,2.064,8.264,6.472,9.328,12.84c1.376,8.176,5.2,15.608,11.072,21.48s13.304,9.704,21.496,11.08    c6.048,1.008,10.312,5.632,12.832,9.328c4.352,6.376,10.432,11.312,17.576,14.28c7.16,2.96,14.952,3.776,22.536,2.336    c6.024-1.128,11.872,0.04,16.976,3.368c6.464,4.24,13.968,6.48,21.72,6.48c13.92,0,26.632-7.152,34-19.12l-13.624-8.392    C207.944,443.704,200.328,448,192,448c-4.624,0-9.104-1.336-12.952-3.856c-8.528-5.568-18.72-7.6-28.704-5.704    c-4.536,0.84-9.184,0.36-13.456-1.4c-4.264-1.768-7.888-4.712-10.488-8.512c-6.04-8.856-14.352-14.576-23.408-16.096    c-4.888-0.824-9.32-3.104-12.832-6.608c-3.504-3.504-5.784-7.928-6.6-12.816c-1.512-9.064-7.232-17.376-16.096-23.416    c-3.808-2.592-6.744-6.216-8.512-10.496c-1.768-4.256-2.248-8.904-1.4-13.44c1.888-10-0.136-20.192-5.712-28.728    C49.336,313.104,48,308.624,48,304c0-4.624,1.336-9.104,3.856-12.952c5.568-8.52,7.592-18.72,5.704-28.704    c-0.848-4.536-0.368-9.184,1.4-13.456c1.768-4.272,4.712-7.888,8.512-10.488c8.856-6.04,14.576-14.352,16.096-23.408    c0.824-4.888,3.104-9.32,6.592-12.824c3.512-3.504,7.944-5.792,12.832-6.608c9.064-1.512,17.376-7.232,23.416-16.096    c2.592-3.808,6.216-6.752,10.488-8.512c4.264-1.776,8.912-2.248,13.448-1.4c9.976,1.88,20.184-0.128,28.728-5.712    c7.672-5.032,18.184-5.04,25.888,0.008c8.52,5.568,18.72,7.584,28.704,5.704c4.528-0.848,9.184-0.368,13.456,1.4    s7.888,4.712,10.488,8.512c6.04,8.856,14.352,14.576,23.408,16.096c4.888,0.824,9.32,3.104,12.824,6.592    c3.504,3.512,5.792,7.944,6.608,12.832c1.512,9.064,7.232,17.376,16.096,23.416c3.808,2.592,6.752,6.216,8.512,10.488    c1.76,4.272,2.248,8.912,1.4,13.448c-1.888,9.992,0.136,20.184,5.712,28.728C334.664,294.896,336,299.376,336,304    c0,4.624-1.336,9.104-3.856,12.944c-5.568,8.52-7.592,18.72-5.704,28.712c0.848,4.536,0.368,9.184-1.4,13.448    c-1.776,4.272-4.712,7.896-8.512,10.496c-8.856,6.04-14.576,14.352-16.096,23.408c-0.824,4.888-3.104,9.32-6.6,12.824    c-3.504,3.504-7.936,5.792-12.824,6.608c-3.208,0.536-6.272,1.776-9.224,3.32c-0.8-14.384-5.552-27.72-13.288-38.888    c1.888-3.312,4.68-5.888,8.304-7.4c6.472-2.72,11.744-7.368,15.264-13.472c3.744-6.496,5.088-14.12,3.784-21.48    c-0.76-4.312,1.568-8.48,3.664-11.224C293.76,317.696,296,311.024,296,304s-2.24-13.696-6.496-19.304    c-2.08-2.736-4.408-6.896-3.648-11.208c1.304-7.36-0.04-14.984-3.784-21.488c-3.52-6.096-8.8-10.744-15.272-13.464    c-4.12-1.728-7.608-5.216-9.336-9.344c-2.72-6.472-7.368-11.744-13.472-15.264c-6.496-3.744-14.104-5.096-21.48-3.784    c-4.312,0.728-8.488-1.56-11.224-3.664c-11.184-8.488-27.376-8.496-38.592,0.016c-2.728,2.08-6.904,4.432-11.208,3.648    c-7.352-1.328-14.984,0.04-21.488,3.784c-6.096,3.52-10.744,8.8-13.464,15.272c-1.728,4.12-5.216,7.608-9.344,9.336    c-6.472,2.72-11.744,7.368-15.264,13.472c-3.744,6.496-5.088,14.12-3.784,21.48c0.76,4.312-1.568,8.48-3.664,11.224    C90.24,290.304,88,296.976,88,304s2.24,13.696,6.496,19.304c2.08,2.736,4.408,6.896,3.648,11.208    c-1.304,7.36,0.04,14.984,3.784,21.488c3.52,6.096,8.8,10.744,15.28,13.472c4.296,1.8,7.52,5.024,9.328,9.336    c2.72,6.472,7.368,11.744,13.472,15.264c6.496,3.752,14.112,5.104,21.48,3.784c4.304-0.688,8.488,1.56,11.224,3.664    c5.592,4.24,12.264,6.48,19.288,6.48c12.6,0,24.072-7.464,29.208-19.016l-14.624-6.496C204.016,388.264,198.288,392,192,392    c-3.504,0-6.832-1.12-9.6-3.216c-7.464-5.696-15.904-8.072-23.696-6.68c-3.744,0.648-7.424,0-10.704-1.888    c-3.032-1.752-5.36-4.384-6.704-7.592c-3.416-8.144-9.776-14.496-17.896-17.904c-3.224-1.352-5.856-3.68-7.608-6.704    c-1.888-3.288-2.544-6.992-1.888-10.712c1.384-7.824-0.992-16.232-6.664-23.68c-2.12-2.792-3.24-6.12-3.24-9.624    c0-3.504,1.12-6.832,3.216-9.6c5.688-7.464,8.064-15.872,6.68-23.696c-0.656-3.72,0-7.424,1.888-10.704    c1.752-3.032,4.384-5.36,7.6-6.712c8.016-3.36,14.536-9.88,17.896-17.888c1.352-3.224,3.68-5.856,6.704-7.608    c3.296-1.896,7.024-2.536,10.712-1.888c7.848,1.4,16.24-1,23.68-6.664c5.576-4.232,13.672-4.216,19.216-0.016    c7.472,5.688,15.912,8.064,23.696,6.68c3.736-0.648,7.416,0,10.704,1.888c3.032,1.752,5.36,4.384,6.712,7.6    c3.36,8.016,9.88,14.536,17.888,17.896c3.224,1.352,5.856,3.68,7.608,6.704c1.888,3.288,2.544,6.992,1.888,10.712    c-1.384,7.824,0.992,16.232,6.664,23.68C278.88,297.168,280,300.496,280,304c0,3.504-1.12,6.832-3.216,9.6    c-5.688,7.464-8.064,15.872-6.68,23.696c0.656,3.72,0,7.424-1.888,10.704c-1.752,3.032-4.384,5.36-7.592,6.704    c-5.136,2.152-9.448,5.584-12.872,9.792c-6.752-6.304-14.624-11.4-23.32-14.928C238.664,339.408,248,322.784,248,304    c0-30.872-25.128-56-56-56s-56,25.128-56,56s25.128,56,56,56h4c33.088,0,60,26.912,60,60c0,31.008-23.648,56.6-53.856,59.688    c-0.024,0-0.056,0.008-0.08,0.008c-0.68,0.072-1.376,0.056-2.056,0.104c-2.656,0.12-5.32,0.2-8.008,0.2    c-97.048,0-176-78.952-176-176s78.952-176,176-176s176,78.952,176,176C368,379.064,320.744,443.264,254.44,468.52z M192,344    c-22.056,0-40-17.944-40-40c0-22.056,17.944-40,40-40c22.056,0,40,17.944,40,40C232,326.056,214.056,344,192,344z     M309.856,152.592c17.344,2.576,30.984,16.216,33.552,33.552C333.64,173.632,322.368,162.36,309.856,152.592z M357.712,207.192    c1.384-4.936,2.288-10,2.288-15.192c0-30.872-25.128-56-56-56c-5.192,0-10.256,0.896-15.2,2.288    c-10.968-6.432-22.624-11.792-34.832-15.976c1.392-2.696,3.376-5,6.032-6.528c3.304-1.888,7.016-2.528,10.712-1.888    c7.808,1.392,16.232-0.992,23.68-6.664c5.576-4.232,13.672-4.216,19.216-0.016c7.464,5.688,15.864,8.072,23.696,6.68    c3.736-0.648,7.416,0,10.704,1.888c3.032,1.752,5.36,4.384,6.712,7.6c3.36,8.016,9.88,14.536,17.888,17.896    c3.224,1.352,5.856,3.68,7.608,6.704c1.888,3.288,2.544,6.992,1.888,10.712c-1.384,7.824,0.992,16.24,6.664,23.688    C390.88,185.168,392,188.496,392,192c0,3.504-1.12,6.832-3.216,9.6c-5.688,7.464-8.064,15.872-6.68,23.696    c0.656,3.72,0,7.424-1.888,10.704c-1.536,2.656-3.84,4.648-6.528,6.04C369.512,229.824,364.144,218.168,357.712,207.192z     M378.008,351.64c2.176-8.496,3.76-17.232,4.752-26.136l0.048,0.032c2.52-3.696,6.792-8.32,12.84-9.328    c8.176-1.376,15.608-5.2,21.488-11.08l-11.312-11.312c-3.504,3.504-7.936,5.792-12.824,6.608c-3.136,0.528-6.128,1.72-9.016,3.208    c-0.032-15.824-2.008-31.2-5.664-45.92c0.168-0.08,0.312-0.184,0.48-0.256c6.472-2.72,11.744-7.368,15.264-13.472    c3.744-6.496,5.088-14.12,3.784-21.48c-0.76-4.312,1.568-8.48,3.664-11.224C405.76,205.696,408,199.024,408,192    s-2.24-13.696-6.496-19.304c-2.08-2.736-4.408-6.896-3.648-11.208c1.304-7.36-0.04-14.984-3.784-21.488    c-3.52-6.096-8.8-10.744-15.272-13.464c-4.12-1.728-7.608-5.216-9.336-9.344c-2.72-6.472-7.368-11.744-13.472-15.264    c-6.496-3.744-14.096-5.096-21.48-3.784c-4.304,0.72-8.48-1.56-11.224-3.664c-11.184-8.488-27.376-8.496-38.592,0.016    c-2.728,2.08-6.896,4.432-11.208,3.648c-7.344-1.328-14.984,0.032-21.488,3.784c-6.096,3.52-10.744,8.8-13.472,15.28    c-0.064,0.16-0.2,0.296-0.272,0.456c-14.712-3.656-30.08-5.632-45.896-5.664c1.488-2.888,2.68-5.88,3.208-9.008    c0.824-4.888,3.104-9.32,6.592-12.824c3.512-3.504,7.944-5.792,12.832-6.608c9.064-1.512,17.376-7.232,23.416-16.096    c2.592-3.808,6.216-6.752,10.488-8.512c4.272-1.776,8.92-2.24,13.448-1.4c9.984,1.896,20.192-0.136,28.728-5.712    c7.672-5.032,18.184-5.04,25.888,0.008c8.528,5.568,18.744,7.6,28.704,5.704c4.512-0.848,9.184-0.368,13.456,1.4    c4.272,1.768,7.888,4.712,10.488,8.512c6.04,8.856,14.352,14.576,23.408,16.096c4.888,0.824,9.32,3.104,12.824,6.592    c3.504,3.512,5.792,7.944,6.608,12.832c1.512,9.064,7.232,17.376,16.096,23.416c3.808,2.592,6.752,6.216,8.512,10.488    c1.76,4.272,2.248,8.912,1.4,13.448c-1.888,9.992,0.136,20.184,5.712,28.728C446.664,182.896,448,187.376,448,192    c0,4.624-1.336,9.104-3.856,12.944c-5.568,8.52-7.592,18.72-5.704,28.712c0.848,4.536,0.368,9.184-1.4,13.448    c-1.776,4.272-4.712,7.896-8.512,10.496c-8.856,6.04-14.576,14.352-16.096,23.416l15.784,2.64    c1.064-6.368,6.296-10.776,9.328-12.832c6.384-4.352,11.32-10.432,14.28-17.584c2.96-7.136,3.768-14.928,2.336-22.528    c-1.136-6.008,0.032-11.872,3.368-16.976C461.76,207.256,464,199.752,464,192s-2.24-15.256-6.472-21.704    c-3.344-5.12-4.504-10.992-3.376-17c1.432-7.592,0.624-15.384-2.336-22.528c-2.968-7.152-7.904-13.224-14.28-17.576    c-3.032-2.064-8.264-6.472-9.328-12.84c-1.376-8.176-5.2-15.608-11.08-21.496c-5.864-5.856-13.296-9.688-21.488-11.064    c-6.368-1.064-10.776-6.296-12.832-9.328c-4.352-6.376-10.432-11.312-17.576-14.28c-7.16-2.952-14.936-3.768-22.536-2.336    c-6.008,1.152-11.864-0.024-16.976-3.368c-12.92-8.472-30.528-8.464-43.424-0.008c-5.12,3.344-11.008,4.504-17,3.376    c-7.592-1.44-15.384-0.624-22.528,2.336c-7.152,2.968-13.224,7.904-17.576,14.28c-2.064,3.032-6.472,8.264-12.84,9.328    c-8.176,1.376-15.608,5.2-21.496,11.08c-5.856,5.864-9.688,13.296-11.064,21.488c-1.064,6.368-6.296,10.776-9.328,12.832    l0.032,0.048c-8.904,1-17.64,2.576-26.136,4.752C172.936,56.392,235.12,16,304,16c97.048,0,176,78.952,176,176    C480,260.88,439.608,323.064,378.008,351.64z"/>
	</g>
</g>
<g>
</g>
<g>
</g>
<g>
</g>
<g>
</g>
<g>
</g>
<g>
</g>
<g>
</g>
<g>
</g>
<g>
</g>
<g>
</g>
<g>
</g>
<g>
</g>
<g>
</g>
<g>
</g>
<g>
</g>
</svg>
