<?xml version="1.0" encoding="iso-8859-1"?>
<!-- Generator: Adobe Illustrator 19.0.0, SVG Export Plug-In . SVG Version: 6.00 Build 0)  -->
<svg xmlns="http://www.w3.org/2000/svg" xmlns:xlink="http://www.w3.org/1999/xlink" version="1.1" id="Capa_1" x="0px" y="0px" viewBox="0 0 480 480" style="enable-background:new 0 0 480 480;" xml:space="preserve">
<g>
	<g>
		<g>
			<path d="M240,200c22.056,0,40-17.944,40-40c0-22.056-17.944-40-40-40c-22.056,0-40,17.944-40,40C200,182.056,217.944,200,240,200     z M240,136c13.232,0,24,10.768,24,24s-10.768,24-24,24s-24-10.768-24-24S226.768,136,240,136z"/>
			<path d="M400,352c0-26.032-20.84-47.24-46.704-47.936V304c-0.144,0-0.288,0.04-0.432,0.04c-0.288,0-0.576-0.04-0.864-0.04h-42.72     C362.856,278.112,400,223.384,400,160C400,71.776,328.224,0,240,0S80,71.776,80,160c0,63.384,37.144,118.112,90.72,144H128     c-26.472,0-48,21.528-48,48c0,16.688,8.568,31.392,21.52,40C88.56,400.608,80,415.312,80,432c0,26.472,21.528,48,48,48h224     c26.472,0,48-21.528,48-48c0-16.688-8.568-31.392-21.52-40C391.432,383.392,400,368.688,400,352z M336.128,320     c-0.032,0.432-0.128,0.856-0.128,1.296V352c0,4.416-3.592,8-8,8c-4.408,0-8-3.584-8-8v-22.416c0-3.392-0.696-6.616-1.904-9.584     H336.128z M384,160c0,34.976-12.552,67.056-33.368,92.032c3.44-12.552,2.664-26.256-3.072-38.736l-9.92-21.568l20.704-11.624     c11.904-6.68,20.576-17.216,25.184-29.304C383.728,153.856,384,156.896,384,160z M361.488,83.024     c-10.824-7.04-24.008-10.432-37.56-8.848l-23.584,2.768l-4.664-23.28c-2.68-13.4-10.032-24.904-20.12-33.024     C311.528,29.816,342.072,52.488,361.488,83.024z M204.432,20.632c-10.088,8.128-17.44,19.632-20.12,33.024l-4.664,23.28     l-23.584-2.768c-13.56-1.56-26.768,1.872-37.608,8.936C137.872,52.536,168.432,29.824,204.432,20.632z M132.432,213.296     c-5.736,12.48-6.52,26.176-3.072,38.736C108.552,227.056,96,194.976,96,160c0-3.104,0.272-6.144,0.464-9.2     c4.616,12.088,13.28,22.624,25.184,29.304l20.704,11.624L132.432,213.296z M160.064,270.032     c-15.672-11.392-21.176-32.44-13.088-50.048l16.08-34.992l-33.576-18.84c-16.896-9.488-24.816-29.744-18.824-48.176     c5.992-18.424,24.336-30.184,43.544-27.904l38.248,4.488L200,56.8c3.8-19.008,20.624-32.8,40-32.8c19.376,0,36.2,13.792,40,32.8     l7.552,37.752l38.248-4.488c19.2-2.288,37.552,9.48,43.544,27.904c5.992,18.44-1.928,38.696-18.824,48.176l-33.576,18.84     l16.08,34.992c8.096,17.608,2.592,38.656-13.088,50.048c-15.664,11.384-37.384,10.112-51.632-3.024L240,240.896l-28.304,26.112     C197.456,280.144,175.728,281.416,160.064,270.032z M240,304c-18.832,0-36.776-3.736-53.272-10.336     c12.984-0.616,25.744-5.6,35.824-14.888L240,262.664l17.456,16.112c10.088,9.296,22.864,14.264,35.856,14.88     C276.8,300.264,258.84,304,240,304z M270.72,320c-0.592,1.456-1.072,2.976-1.392,4.56l-2.664,13.344     c-0.712,3.536-3.832,6.096-7.44,6.096c-3.264,0-6.16-2.08-7.184-5.176l-1.84-5.52c-2.656-7.96-10.064-13.304-18.448-13.304     c-8,0-15.088,4.8-18.056,12.224L203.392,358c-1.016,2.536-5.256,2.312-6.008-0.304L186.608,320h45.144H270.72z M384,432     c0,17.648-14.352,32-32,32H128c-17.648,0-32-14.352-32-32c0-12.32,7.072-22.912,17.296-28.256V432c0,13.232,10.768,24,24,24     s24-10.768,24-24v-22.416c0-5.288,4.304-9.584,9.584-9.584c4.552,0,8.504,3.24,9.4,7.704l2.664,13.344     c2.192,10.984,11.92,18.952,23.12,18.952c10.168,0,19.152-6.48,22.368-16.12l1.84-5.52c0.92-2.768,5.4-2.88,6.472-0.192     l10.312,25.784c2.928,7.312,9.92,12.048,17.808,12.048c8.52,0,16.104-5.72,18.44-13.912L295.328,400H352     C369.648,400,384,414.352,384,432z M129.168,400H147.2c-1.208,2.968-1.904,6.192-1.904,9.584V432c0,4.416-3.592,8-8,8     c-4.408,0-8-3.584-8-8v-30.704C129.296,400.856,129.2,400.432,129.168,400z M194.576,400h38.968h45.144l-10.768,37.696     c-0.76,2.616-5,2.832-6,0.312l-10.32-25.784C248.632,404.8,241.544,400,233.544,400c-8.384,0-15.8,5.344-18.448,13.296     l-1.84,5.52c-1.032,3.104-3.92,5.184-7.184,5.184c-3.6,0-6.728-2.56-7.432-6.096l-2.664-13.344     C195.648,402.976,195.168,401.456,194.576,400z M352,384H128c-17.648,0-32-14.352-32-32s14.352-32,32-32h41.968l12.024,42.088     c2.336,8.192,9.92,13.912,18.44,13.912c7.88,0,14.872-4.728,17.808-12.056l10.304-25.784c1.088-2.68,5.568-2.56,6.472,0.192     l1.84,5.52C240.072,353.52,249.064,360,259.232,360c11.2,0,20.92-7.968,23.12-18.952l2.664-13.344     c0.896-4.464,4.848-7.704,9.4-7.704c5.28,0,9.584,4.296,9.584,9.584V352c0,13.232,10.768,24,24,24s24-10.768,24-24v-30.704     c0-0.616,0.464-1.064,1.04-1.192C370.192,320.672,384,334.712,384,352C384,369.648,369.648,384,352,384z"/>
			<rect x="120" y="336" width="16" height="16"/>
			<rect x="152" y="352" width="16" height="16"/>
			<rect x="304" y="416" width="16" height="16"/>
			<rect x="336" y="432" width="16" height="16"/>
		</g>
	</g>
</g>
<g>
</g>
<g>
</g>
<g>
</g>
<g>
</g>
<g>
</g>
<g>
</g>
<g>
</g>
<g>
</g>
<g>
</g>
<g>
</g>
<g>
</g>
<g>
</g>
<g>
</g>
<g>
</g>
<g>
</g>
</svg>
