<?xml version="1.0" encoding="iso-8859-1"?>
<!-- Generator: Adobe Illustrator 19.0.0, SVG Export Plug-In . SVG Version: 6.00 Build 0)  -->
<svg xmlns="http://www.w3.org/2000/svg" xmlns:xlink="http://www.w3.org/1999/xlink" version="1.1" id="Capa_1" x="0px" y="0px" viewBox="0 0 496 496" style="enable-background:new 0 0 496 496;" xml:space="preserve">
<g>
	<g>
		<g>
			<path d="M386.192,159.2c13.336-11.736,21.808-28.88,21.808-48c0-33.752-26.28-61.416-59.448-63.768     c-5.208-18.4-16.208-34.968-31.752-46.632l-9.6,12.8c11.752,8.816,20.344,21.064,24.96,34.744C302.512,53.92,280,79.96,280,111.2     c0,19.12,8.472,36.264,21.808,48H111.432c-3.896-27.104-27.264-48-55.432-48c-30.88,0-56,25.128-56,56     c0,22.296,13.096,41.584,32,50.592V495.2h464v-336H386.192z M296,111.2c0-23.592,17.112-43.208,39.568-47.208     C335.816,66.376,336,68.776,336,71.2v23.112c-12.168-2.584-16.68-10.4-16.896-10.792l-14.256,7.256     c0.416,0.84,10.536,20.424,39.152,20.424c28.616,0,38.736-19.584,39.16-20.424l-14.256-7.256     c-0.216,0.4-4.728,8.216-16.896,10.792V71.2c0-2.464-0.224-4.904-0.432-7.344C374.44,67.504,392,87.312,392,111.2     c0,26.472-21.528,48-48,48S296,137.672,296,111.2z M480,415.2h-32v16h32v48H48v-48h384v-16H48v-32h432V415.2z M480,311.2H96v16     h384v40H48v-40h32v-16H48v-16h432V311.2z M480,279.2H48v-56.568c2.616,0.376,5.288,0.568,8,0.568     c13.8,0,27.056-5.064,37.336-14.264l-10.672-11.92C75.328,203.584,65.856,207.2,56,207.2c-22.056,0-40-17.944-40-40     c0-22.056,17.944-40,40-40c22.056,0,40,17.944,40,40v8h384V279.2z"/>
			<rect x="120" y="199.2" width="16" height="16"/>
			<rect x="152" y="223.2" width="16" height="16"/>
			<rect x="200" y="183.2" width="16" height="16"/>
			<rect x="232" y="207.2" width="16" height="16"/>
			<rect x="296" y="191.2" width="16" height="16"/>
			<rect x="328" y="223.2" width="16" height="16"/>
			<rect x="368" y="207.2" width="16" height="16"/>
			<rect x="416" y="191.2" width="16" height="16"/>
			<rect x="440" y="223.2" width="16" height="16"/>
		</g>
	</g>
</g>
<g>
</g>
<g>
</g>
<g>
</g>
<g>
</g>
<g>
</g>
<g>
</g>
<g>
</g>
<g>
</g>
<g>
</g>
<g>
</g>
<g>
</g>
<g>
</g>
<g>
</g>
<g>
</g>
<g>
</g>
</svg>
