<?xml version="1.0" encoding="iso-8859-1"?>
<!-- Generator: Adobe Illustrator 19.0.0, SVG Export Plug-In . SVG Version: 6.00 Build 0)  -->
<svg xmlns="http://www.w3.org/2000/svg" xmlns:xlink="http://www.w3.org/1999/xlink" version="1.1" id="Capa_1" x="0px" y="0px" viewBox="0 0 496 496" style="enable-background:new 0 0 496 496;" xml:space="preserve">
<g>
	<g>
		<g>
			<path d="M348,96c-14.92,0-29.312,2.288-42.856,6.512c4.736-18.632-0.152-39.104-14.352-53.312     c-17.496-17.472-44.192-20.92-65.384-9.864C218.264,16.48,196.856,0,172,0s-46.264,16.48-53.416,39.336     C97.4,28.272,70.68,31.736,53.2,49.2c-17.48,17.488-20.92,44.184-9.864,65.384C20.48,121.736,4,143.144,4,168     s16.48,46.264,39.336,53.416C32.28,242.608,35.728,269.312,53.2,286.8c17.496,17.488,44.2,20.936,65.384,9.864     c3.736,11.952,11.432,22.072,21.416,29.088V496h64V325.808c6.88-4.832,12.632-11.152,16.776-18.536     c19.368,36.472,53.944,63.6,95.224,73.016V496h64V380.288c62.48-14.248,109.504-69.184,111.752-135.384     C491.92,243.288,492,241.656,492,240C492,160.6,427.4,96,348,96z M188,480h-32v-16h32V480z M188,448h-32V333.528     c5.096,1.536,10.44,2.472,16,2.472c5.544,0,10.92-0.824,16-2.352V448z M172,320c-20.944,0-38.448-16.384-39.848-37.296     l-1.088-16.072L118.912,277.2c-15.8,13.744-39.68,12.992-54.4-1.72c-14.704-14.712-15.464-38.6-1.72-54.4l10.568-12.152     l-16.072-1.088C36.384,206.448,20,188.944,20,168c0-20.944,16.384-38.448,37.296-39.848l16.072-1.088L62.8,114.912     c-13.744-15.8-12.984-39.688,1.72-54.4c14.72-14.704,38.6-15.464,54.4-1.72l12.152,10.568l1.088-16.072     C133.552,32.384,151.056,16,172,16c20.944,0,38.448,16.384,39.848,37.296l1.088,16.072L225.088,58.8     c15.808-13.736,39.68-12.984,54.4,1.72c13.52,13.528,15.232,35.016,4.416,50.728c-16.688,8.344-31.504,19.792-43.736,33.648     C230.456,116.232,203.312,96,172,96c-39.704,0-72,32.296-72,72s32.296,72,72,72c11.352,0,22.424-2.712,32.392-7.736     C204.256,234.84,204,237.392,204,240c0,15.84,2.672,31.048,7.416,45.32C208.768,304.944,192.048,320,172,320z M227.76,160.968     c-10.016,15.192-17.264,32.36-20.944,50.816C196.936,219.656,184.704,224,172,224c-30.872,0-56-25.128-56-56s25.128-56,56-56     c28.192,0,52.088,21.064,55.568,48.992L227.76,160.968z M364,480h-32v-16h32V480z M364,448h-32v-64.944     c5.264,0.584,10.584,0.944,16,0.944c5.416,0,10.736-0.36,16-0.944V448z M348,368c-70.576,0-128-57.424-128-128     c0-47.256,25.808-88.504,64-110.68V148c0,18.008,10.888,33.504,26.416,40.312C294.44,199.96,284,218.76,284,240     c0,35.288,28.712,64,64,64c25.12,0,46.848-14.584,57.32-35.704C414.056,280.216,428.12,288,444,288     c9.264,0,17.888-2.68,25.232-7.24C452.16,331.392,404.32,368,348,368z M396,240c0,26.472-21.528,48-48,48s-48-21.528-48-48     s21.528-48,48-48S396,213.528,396,240z M360.744,177.28C367.72,169.496,372,159.248,372,148c0-6.616,5.384-12,12-12     c6.616,0,12,5.384,12,12v49.808C386.944,187.52,374.68,180.112,360.744,177.28z M444,272c-17.648,0-32-14.352-32-32v-92     c0-15.44-12.56-28-28-28s-28,12.56-28,28s-12.56,28-28,28s-28-12.56-28-28v-26.576c14.84-6.032,31.024-9.424,48-9.424     c70.576,0,128,57.424,128,128C476,257.648,461.648,272,444,272z"/>
			
				<rect x="309.593" y="132.003" transform="matrix(-0.5547 -0.8321 0.8321 -0.5547 387.25 487.2639)" width="28.849" height="16.001"/>
			
				<rect x="421.594" y="164.008" transform="matrix(-0.5547 -0.8321 0.8321 -0.5547 534.746 630.2138)" width="28.849" height="16.001"/>
			
				<rect x="421.599" y="228.046" transform="matrix(-0.5547 -0.8321 0.8321 -0.5547 481.4701 729.7767)" width="28.849" height="16.001"/>
			<path d="M252,240h-16c0,48.704,31.096,91.52,77.384,106.544l4.936-15.216C278.656,318.456,252,281.752,252,240z"/>
			<path d="M331.44,350.784c5.408,0.8,10.984,1.216,16.56,1.216v-16c-4.792,0-9.56-0.352-14.2-1.048L331.44,350.784z"/>
		</g>
	</g>
</g>
<g>
</g>
<g>
</g>
<g>
</g>
<g>
</g>
<g>
</g>
<g>
</g>
<g>
</g>
<g>
</g>
<g>
</g>
<g>
</g>
<g>
</g>
<g>
</g>
<g>
</g>
<g>
</g>
<g>
</g>
</svg>
