<?xml version="1.0" encoding="iso-8859-1"?>
<!-- Generator: Adobe Illustrator 19.0.0, SVG Export Plug-In . SVG Version: 6.00 Build 0)  -->
<svg xmlns="http://www.w3.org/2000/svg" xmlns:xlink="http://www.w3.org/1999/xlink" version="1.1" id="Capa_1" x="0px" y="0px" viewBox="0 0 496 496" style="enable-background:new 0 0 496 496;" xml:space="preserve">
<g>
	<g>
		<g>
			<path d="M442.932,23.416C440.74,15.232,435.428,8.4,427.98,4.184C412.796-4.4,393.292,0.728,384.508,15.68l-62.76,106.616     c-20.424-20.36-46.728-34.48-75.704-39.832c3.72-5.232,5.952-11.576,5.952-18.464c0-13.664-8.648-25.264-20.72-29.848     C236.459,23.456,247.324,16,259.996,16V0c-21.056,0-38.944,13.648-45.4,32.544c-15.072,2.584-26.6,15.656-26.6,31.456     c0,6.888,2.232,13.232,5.944,18.456c-53.648,9.912-98.312,49.784-113.032,103.776l-20.28,74.384     c-5.424,7.776-8.632,17.208-8.632,27.384c0,12.304,4.688,23.496,12.32,32h-12.32v40c0,49.072,34.208,90.216,80,101.096V496h176     v-34.904c45.792-10.88,80-52.024,80-101.096v-40h-12.32c7.632-8.504,12.32-19.696,12.32-32c0-10.176-3.208-19.608-8.632-27.384     l-20.28-74.384c-0.128-0.456-0.304-0.896-0.432-1.352l81.04-137.664C443.948,39.968,445.108,31.512,442.932,23.416z      M211.995,50.224V56h16v-5.776c4.76,2.776,8,7.88,8,13.776c0,8.824-7.176,16-16,16c-8.824,0-16-7.176-16-16     C203.995,58.104,207.235,53,211.995,50.224z M123.996,139.48c23.8-26.896,58.416-43.48,96-43.48c8.176,0,16.184,0.864,24,2.36     V156c0,11.032-8.968,20-20,20c-11.032,0-20-8.968-20-20v-16c0-11.032-8.968-20-20-20s-20,8.968-20,20v56c0,11.032-8.968,20-20,20     s-20-8.968-20-20V139.48z M96.347,190.44c2.752-10.096,6.712-19.624,11.648-28.48V196c0,19.848,16.152,36,36,36     c19.848,0,36-16.152,36-36v-56c0-2.2,1.8-4,4-4s4,1.8,4,4v16c0,19.848,16.152,36,36,36c19.848,0,36-16.152,36-36v-53.512     c40.024,13.224,72.136,45.728,83.648,87.952l14.496,53.144c-5.608-2.296-11.728-3.584-18.144-3.584     c-16.688,0-31.392,8.568-40,21.52c-8.608-12.96-23.312-21.52-40-21.52s-31.392,8.568-40,21.52     c-8.608-12.96-23.312-21.52-40-21.52s-31.392,8.568-40,21.52c-8.608-12.96-23.312-21.52-40-21.52     c-6.416,0-12.536,1.288-18.144,3.584L96.347,190.44z M304.316,320h-8.64c1.56-1.744,3.024-3.568,4.32-5.52     C301.292,316.432,302.756,318.264,304.316,320z M291.996,288c0,17.648-14.352,32-32,32s-32-14.352-32-32s14.352-32,32-32     S291.996,270.352,291.996,288z M224.316,320h-8.64c1.56-1.744,3.024-3.568,4.32-5.52     C221.292,316.432,222.756,318.264,224.316,320z M211.995,288c0,17.648-14.352,32-32,32s-32-14.352-32-32s14.352-32,32-32     S211.995,270.352,211.995,288z M144.316,320h-8.64c1.56-1.744,3.024-3.568,4.32-5.52     C141.292,316.432,142.756,318.256,144.316,320z M99.996,256c17.648,0,32,14.352,32,32s-14.352,32-32,32s-32-14.352-32-32     S82.347,256,99.996,256z M371.996,352h-16v16h15.592c-4.056,44.784-41.768,80-87.592,80h-8v16h8c2.704,0,5.352-0.2,8-0.408V480     h-144v-16.408c2.648,0.208,5.296,0.408,8,0.408h104v-16h-104c-45.824,0-83.536-35.216-87.592-80h271.592v-16h-272v-16h304V352z      M371.996,288c0,17.648-14.352,32-32,32s-32-14.352-32-32s14.352-32,32-32S371.996,270.352,371.996,288z M425.9,39.112     L351.564,165.4c-4.952-11.064-11.208-21.344-18.592-30.648L398.3,23.784c4.376-7.456,14.152-10,21.808-5.672     c3.68,2.088,6.296,5.44,7.376,9.448C428.532,31.488,427.972,35.584,425.9,39.112z"/>
			<rect x="331.996" y="280" width="16" height="16"/>
			<rect x="251.995" y="280" width="16" height="16"/>
			<rect x="171.995" y="280" width="16" height="16"/>
			<rect x="91.996" y="280" width="16" height="16"/>
		</g>
	</g>
</g>
<g>
</g>
<g>
</g>
<g>
</g>
<g>
</g>
<g>
</g>
<g>
</g>
<g>
</g>
<g>
</g>
<g>
</g>
<g>
</g>
<g>
</g>
<g>
</g>
<g>
</g>
<g>
</g>
<g>
</g>
</svg>
