<?xml version="1.0" encoding="iso-8859-1"?>
<!-- Generator: Adobe Illustrator 19.0.0, SVG Export Plug-In . SVG Version: 6.00 Build 0)  -->
<svg xmlns="http://www.w3.org/2000/svg" xmlns:xlink="http://www.w3.org/1999/xlink" version="1.1" id="Capa_1" x="0px" y="0px" viewBox="0 0 488 488" style="enable-background:new 0 0 488 488;" xml:space="preserve">
<g>
	<g>
		<g>
			<path d="M385.544,296l-22.024-58.736c10.712-15.576,9.224-37.088-4.608-50.92l-45.256-45.256     c-10.872-10.872-27.152-14.328-41.432-9.336c-1.392-1.392-2.96-2.552-4.52-3.712C277.536,120.744,284,109.152,284,96     c0-17.856-11.848-32.848-28.032-37.968C264.96,33.552,288.44,16,316,16V0c-35.912,0-66.368,23.8-76.448,56.448     C219.608,58.696,204,75.472,204,96c0,13.152,6.464,24.744,16.296,32.04c-1.56,1.16-3.128,2.32-4.52,3.712     c-14.28-4.984-30.552-1.544-41.432,9.336l-45.256,45.256c-13.832,13.84-15.32,35.352-4.608,50.92L102.456,296H76v40     c0,30.872,25.128,56,56,56h80v48h-56c-13.232,0-24,10.768-24,24v24h224v-24c0-13.232-10.768-24-24-24h-56v-48h80     c30.872,0,56-25.128,56-56v-40H385.544z M368.456,296H306.24l-4.248-16.992l-15.512,3.872l3.28,13.12h-91.52l12.48-49.928     C217.896,256.848,230.112,264,244,264s26.104-7.144,33.272-17.928l5.288,21.16l15.512-3.872l-8.232-32.936l12.496,12.496     c13.136,13.136,33.152,15.064,48.48,6.072L368.456,296z M220,96c0-10.536,6.872-19.416,16.336-22.632     C236.152,75.56,236,77.76,236,80v8h16v-8c0-2.168,0.112-4.312,0.328-6.424C261.448,76.976,268,85.704,268,96     c0,13.232-10.768,24-24,24S220,109.232,220,96z M140.4,197.656l45.256-45.256c7.456-7.44,19.168-9.056,28.48-3.92l6.232,3.432     l4.136-5.792C229.032,139.784,236.32,136,244,136s14.968,3.784,19.504,10.12l4.136,5.792l6.232-3.432     c9.312-5.136,21.04-3.512,28.48,3.92l45.256,45.256c9.352,9.36,9.352,24.584,0,33.944c-9.352,9.336-24.576,9.352-33.944,0     L268,185.944V224c0,13.232-10.768,24-24,24s-24-10.768-24-24v-38.056L174.344,231.6c-9.352,9.336-24.576,9.352-33.944,0     C131.048,222.24,131.048,207.016,140.4,197.656z M137.176,248.992c15.328,8.992,35.352,7.056,48.48-6.072l12.496-12.488     L181.76,296h-62.208L137.176,248.992z M332,456c4.416,0,8,3.584,8,8v8H148v-8c0-4.416,3.584-8,8-8H332z M228,440v-48h32v48H228z      M396,336c0,22.056-17.944,40-40,40h-80h-64h-80c-22.056,0-40-17.944-40-40v-24h304V336z"/>
			<rect x="108" y="328" width="16" height="16"/>
			<rect x="140" y="328" width="136" height="16"/>
		</g>
	</g>
</g>
<g>
</g>
<g>
</g>
<g>
</g>
<g>
</g>
<g>
</g>
<g>
</g>
<g>
</g>
<g>
</g>
<g>
</g>
<g>
</g>
<g>
</g>
<g>
</g>
<g>
</g>
<g>
</g>
<g>
</g>
</svg>
