<?xml version="1.0" encoding="iso-8859-1"?>
<!-- Generator: Adobe Illustrator 19.0.0, SVG Export Plug-In . SVG Version: 6.00 Build 0)  -->
<svg xmlns="http://www.w3.org/2000/svg" xmlns:xlink="http://www.w3.org/1999/xlink" version="1.1" id="Capa_1" x="0px" y="0px" viewBox="0 0 496 496" style="enable-background:new 0 0 496 496;" xml:space="preserve">
<g>
	<g>
		<g>
			<path d="M400,0c-52.936,0-96,43.064-96,96v304c0,52.936,43.064,96,96,96c52.936,0,96-43.064,96-96V96C496,43.064,452.936,0,400,0     z M480,400c0,44.112-35.888,80-80,80s-80-35.888-80-80V96c0-44.112,35.888-80,80-80s80,35.888,80,80V400z"/>
			<path d="M360,88c-13.232,0-24,10.768-24,24s10.768,24,24,24h80c13.232,0,24-10.768,24-24s-10.768-24-24-24H360z M448,112     c0,4.416-3.592,8-8,8h-80c-4.408,0-8-3.584-8-8s3.592-8,8-8h80C444.408,104,448,107.584,448,112z"/>
			<path d="M440,184h-80c-13.232,0-24,10.768-24,24s10.768,24,24,24h80c13.232,0,24-10.768,24-24S453.232,184,440,184z M440,216h-80     c-4.408,0-8-3.584-8-8s3.592-8,8-8h80c4.408,0,8,3.584,8,8S444.408,216,440,216z"/>
			<path d="M440,280h-80c-13.232,0-24,10.768-24,24s10.768,24,24,24h80c13.232,0,24-10.768,24-24S453.232,280,440,280z M440,312h-80     c-4.408,0-8-3.584-8-8c0-4.416,3.592-8,8-8h80c4.408,0,8,3.584,8,8C448,308.416,444.408,312,440,312z"/>
			<path d="M440,376h-80c-13.232,0-24,10.768-24,24s10.768,24,24,24h56v-16h-56c-4.408,0-8-3.584-8-8c0-4.416,3.592-8,8-8h80     c4.408,0,8,3.584,8,8c0,4.416-3.592,8-8,8h-8v16h8c13.232,0,24-10.768,24-24S453.232,376,440,376z"/>
			<path d="M288,61.912c0-15.464-10.304-28.88-25.048-32.64c-3.288-0.84-6.6-1.584-9.904-2.232     c-33.208-6.52-68.848-2.512-103.072,11.64l-15.856,6.552c-17.264-3.12-34.888,0.576-49.768,10.92     C68.216,67.368,57.768,85,55.344,104.456c-3.376,1.696-6.68,3.576-9.816,5.848c-16.728,12.112-27.032,30.312-29.088,50.72     C6.504,168.76,0,180.688,0,194.216v107.56c0,13.528,6.504,25.456,16.432,33.184c2.056,20.408,12.36,38.608,29.088,50.72     c3.152,2.288,6.448,4.248,9.84,5.952c2.44,19.416,12.88,37.008,28.984,48.208c11.512,8.008,24.664,12.104,38.016,12.104     c3.976,0,7.968-0.368,11.936-1.104l15.664,6.48c23.576,9.744,47.816,14.688,71.464,14.688c10.688,0,21.264-1.016,31.6-3.048     c3.32-0.648,6.632-1.392,9.904-2.232c14.76-3.76,25.064-17.176,25.064-32.64c0-9.68-4.104-18.888-11.256-25.272L224.96,362.56     c2.952-13.728,3.456-28.184,1.072-42.768c4.064-13.368,4.872-27.872,1.68-42.28C235.384,269.84,240,259.32,240,248     s-4.616-21.84-12.28-29.504c3.192-14.408,2.384-28.92-1.68-42.28c2.384-14.592,1.88-29.04-1.072-42.768L276.752,87.2     C283.896,80.808,288,71.592,288,61.912z M93.48,69.296c13.888-9.656,30.928-11.832,46.72-5.976l8.96,3.32     c35.096,13.024,58.488,45.12,61.976,81.464c-9.488-11.712-22.216-20.944-37.496-25.952l-65.912-21.624     c-11.536-3.776-23.464-4.36-34.888-2.096C76.096,86.688,83.184,76.456,93.48,69.296z M54.904,123.264     c14.024-10.16,31.464-12.904,47.84-7.536l65.912,21.624c30.392,9.976,48.488,40.544,44.456,71.72     c-0.392-0.152-0.752-0.368-1.152-0.512L56.088,154.344C51.624,152.792,46.952,152,42.216,152c-2.72,0-5.368,0.312-7.944,0.8     C37.64,141.008,44.704,130.656,54.904,123.264z M16,301.784V194.216C16,179.76,27.76,168,42.216,168     c2.944,0,5.832,0.496,8.608,1.456l155.872,54.216C217.048,227.272,224,237.048,224,248c0,10.952-6.952,20.728-17.296,24.328     L50.832,326.544c-2.776,0.96-5.672,1.456-8.616,1.456C27.76,328,16,316.24,16,301.784z M54.904,372.736     c-10.2-7.392-17.272-17.744-20.632-29.536c2.576,0.488,5.224,0.8,7.944,0.8c4.736,0,9.4-0.792,13.864-2.344l155.872-54.216     c0.4-0.136,0.76-0.352,1.152-0.504c4.04,31.168-14.056,61.736-44.448,71.712l-65.912,21.624     C86.36,385.656,68.928,382.896,54.904,372.736z M149.168,429.368l-8.968,3.32c-15.792,5.848-32.824,3.688-46.72-5.976     c-10.312-7.176-17.408-17.416-20.656-29.176c4.344,0.864,8.744,1.456,13.192,1.456c7.24-0.008,14.56-1.168,21.712-3.504     l65.912-21.624c15.28-5.008,28-14.24,37.488-25.952C207.648,384.248,184.256,416.336,149.168,429.368z M266.088,420.752     c3.76,3.352,5.912,8.208,5.912,13.336c0,8.144-5.352,15.184-13.024,17.144c-2.984,0.768-5.992,1.448-9.016,2.032     c-29.608,5.84-61.488,2.28-92.304-10.128c29.376-11.872,51.376-35.272,62.28-63.608L266.088,420.752z M266.088,75.248     l-46.16,41.224c-10.896-28.336-32.904-51.728-62.28-63.608c30.824-12.416,62.704-15.96,92.32-10.128     c3.016,0.584,6.016,1.264,9.016,2.032C266.648,46.728,272,53.776,272,61.912C272,67.04,269.848,71.896,266.088,75.248z"/>
			<rect x="32" y="288" width="16" height="16"/>
			<rect x="32" y="192" width="16" height="80"/>
		</g>
	</g>
</g>
<g>
</g>
<g>
</g>
<g>
</g>
<g>
</g>
<g>
</g>
<g>
</g>
<g>
</g>
<g>
</g>
<g>
</g>
<g>
</g>
<g>
</g>
<g>
</g>
<g>
</g>
<g>
</g>
<g>
</g>
</svg>
