<?xml version="1.0" encoding="iso-8859-1"?>
<!-- Generator: Adobe Illustrator 19.0.0, SVG Export Plug-In . SVG Version: 6.00 Build 0)  -->
<svg xmlns="http://www.w3.org/2000/svg" xmlns:xlink="http://www.w3.org/1999/xlink" version="1.1" id="Capa_1" x="0px" y="0px" viewBox="0 0 496 496" style="enable-background:new 0 0 496 496;" xml:space="preserve">
<g>
	<g>
		<g>
			<path d="M392,0H264c-57.344,0-104,46.656-104,104v48v8c0,8.992,3.088,17.208,8.112,23.888C162.904,190.776,160,199.224,160,208     c0,9.04,3.128,17.296,8.208,24H160v16c-9.064,0-17.912,1.808-26.176,5.04l0.424-0.424c12.984-12.984,12.984-34.112,0-47.096     c-7.192-7.192-16.872-10.248-26.288-9.472c0.072-0.92,0.272-1.816,0.272-2.752c0-8.888-3.464-17.256-9.752-23.544     c-12.984-12.984-34.104-12.984-47.088,0l-15.16,15.16l-3.272-3.264c-3.648-3.64-8.496-5.648-13.648-5.648     C8.664,176,0,184.664,0,195.312V496h300.688c10.648,0,19.312-8.664,19.312-19.312c0-4.056-1.36-8.008-3.704-11.28     C328.864,452.104,336,434.456,336,416c0-39.704-32.304-72-72-72c-15.736,0-30.896,5.192-43.272,14.504     c5.832-9.192,9.592-19.592,10.816-30.504H456c22.056,0,40-17.944,40-40v-56h-8.208c5.08-6.704,8.208-14.96,8.208-24     c0-8.768-2.904-17.216-8.112-24.112C492.912,177.2,496,168.984,496,160v-8v-48C496,46.656,449.344,0,392,0z M160,264     c30.88,0,56,25.128,56,56c0,12.176-3.992,23.912-11.168,33.52l-11.504-11.504c4.28-6.48,6.672-14.104,6.672-22.016     c0-22.056-17.944-40-40-40c-7.88,0-15.472,2.424-21.976,6.712l-11.544-11.544C136.088,267.992,147.824,264,160,264z M184,320     c0,3.616-0.856,7.112-2.384,10.304l-31.888-31.888C152.92,296.896,156.4,296,160,296C173.232,296,184,306.768,184,320z      M122.936,216.832c6.744,6.744,6.744,17.728,0,24.472l-15.16,15.16L83.312,232l15.16-15.16     C105.216,210.104,116.192,210.104,122.936,216.832z M62.696,181.064c6.744-6.736,17.72-6.736,24.464,0     c3.264,3.264,5.064,7.608,5.064,12.232c0,4.616-1.8,8.96-5.064,12.224L72,220.688l-24.464-24.464L62.696,181.064z M264,360     c30.88,0,56,25.128,56,56c0,14.096-5.336,27.616-14.792,37.896l-11.36-11.36c4.144-4.648,7.184-10.144,8.8-16.192l-15.456-4.144     c-0.888,3.328-2.488,6.384-4.664,9.016l-33.72-33.72C253.096,393.984,258.432,392,264,392c11.264,0,20.88,7.648,23.392,18.608     l15.592-3.576C298.808,388.76,282.768,376,264,376c-9.752,0-19.152,3.552-26.456,10l1.728,1.952l-13.168-13.168     C236.392,365.336,249.904,360,264,360z M303.04,474.352c0.608,0.608,0.96,1.464,0.96,2.336c0,1.824-1.488,3.312-3.312,3.312H16     V195.312c0-2.696,3.744-4.256,5.656-2.344L303.04,474.352z M232,232v16h85.256l75.848,59l50.576-59H456h24v40     c0,13.232-10.768,24-24,24H231.528c-3.4-30.6-26.048-55.424-55.528-62.144V248h24h16v-16h-16c-13.232,0-24-10.768-24-24     c0-4.848,1.544-9.504,4.216-13.448C186.08,197.92,192.768,200,200,200c13.128,0,24.704-6.448,32-16.248     c7.296,9.8,18.872,16.248,32,16.248s24.704-6.448,32-16.248c7.296,9.8,18.872,16.248,32,16.248s24.704-6.448,32-16.248     c7.296,9.8,18.872,16.248,32,16.248s24.704-6.448,32-16.248c7.296,9.8,18.872,16.248,32,16.248c7.232,0,13.92-2.08,19.784-5.448     c2.672,3.944,4.216,8.6,4.216,13.448c0,13.232-10.768,24-24,24H232z M422.608,248l-31.72,37l-47.576-37H422.608z M176,160h48     c0,13.232-10.768,24-24,24S176,173.232,176,160z M240,160h48c0,13.232-10.768,24-24,24S240,173.232,240,160z M304,160h48     c0,13.232-10.768,24-24,24S304,173.232,304,160z M368,160h48c0,13.232-10.768,24-24,24S368,173.232,368,160z M456,184     c-13.232,0-24-10.768-24-24h48C480,173.232,469.232,184,456,184z M480,144H176v-40c0-48.52,39.48-88,88-88h128     c48.52,0,88,39.48,88,88V144z"/>
			<rect x="240" y="32" width="16" height="16"/>
			<rect x="272" y="48" width="16" height="16"/>
			<rect x="320" y="40" width="16" height="16"/>
			<rect x="360" y="64" width="16" height="16"/>
			<rect x="392" y="32" width="16" height="16"/>
			<rect x="424" y="56" width="16" height="16"/>
			<rect x="216" y="64" width="16" height="16"/>
		</g>
	</g>
</g>
<g>
</g>
<g>
</g>
<g>
</g>
<g>
</g>
<g>
</g>
<g>
</g>
<g>
</g>
<g>
</g>
<g>
</g>
<g>
</g>
<g>
</g>
<g>
</g>
<g>
</g>
<g>
</g>
<g>
</g>
</svg>
