<?xml version="1.0" encoding="iso-8859-1"?>
<!-- Generator: Adobe Illustrator 19.0.0, SVG Export Plug-In . SVG Version: 6.00 Build 0)  -->
<svg xmlns="http://www.w3.org/2000/svg" xmlns:xlink="http://www.w3.org/1999/xlink" version="1.1" id="Capa_1" x="0px" y="0px" viewBox="0 0 496 496" style="enable-background:new 0 0 496 496;" xml:space="preserve">
<g>
	<g>
		<g>
			<rect x="80" y="268" width="16" height="16"/>
			<rect x="120" y="292" width="16" height="16"/>
			<rect x="40" y="292" width="16" height="16"/>
			<rect x="240" y="268" width="16" height="16"/>
			<rect x="280" y="292" width="16" height="16"/>
			<rect x="200" y="292" width="16" height="16"/>
			<path d="M496,324c0-45.824-35.216-83.536-80-87.592V236c0-45.824-35.216-83.536-80-87.592V148c0-48.52-39.48-88-88-88     c-48.52,0-88,39.48-88,88v0.408c-44.784,4.056-80,41.768-80,87.592v0.408C35.216,240.464,0,278.176,0,324v16h4.448     C1.696,344.728,0,350.144,0,356c0,17.648,14.352,32,32,32h35.72l32,48h296.56l32-48H464c17.648,0,32-14.352,32-32     c0-5.856-1.696-11.272-4.448-16H496V324z M400,236h-64v16h21.56c-12.76,8.968-23.008,21.232-29.56,35.552     c-6.552-14.32-16.8-26.584-29.56-35.552H320v-16h-64c0-39.696,32.304-72,72-72S400,196.304,400,236z M248,252     c39.696,0,72,32.304,72,72H176C176,284.304,208.304,252,248,252z M168,287.552c-6.552-14.32-16.8-26.584-29.56-35.552h59.128     C184.8,260.968,174.552,273.232,168,287.552z M218.44,164h59.128c-12.768,8.968-23.016,21.232-29.568,35.552     C241.448,185.232,231.2,172.968,218.44,164z M248,76c39.696,0,72,32.304,72,72H176C176,108.304,208.304,76,248,76z M168,164     c39.696,0,72,32.304,72,72H96C96,196.304,128.304,164,168,164z M88,252c39.696,0,72,32.304,72,72H32H16     C16,284.304,48.304,252,88,252z M464,372h-72v16h17.056l-21.336,32H108.28l-21.336-32H376v-16H32c-8.824,0-16-7.176-16-16     c0-8.824,7.176-16,16-16h128h16h144h16h128c8.824,0,16,7.176,16,16C480,364.824,472.824,372,464,372z M464,324H336     c0-39.696,32.304-72,72-72s72,32.304,72,72H464z"/>
			<rect x="400" y="268" width="16" height="16"/>
			<rect x="440" y="292" width="16" height="16"/>
			<rect x="360" y="292" width="16" height="16"/>
			<rect x="320" y="180" width="16" height="16"/>
			<rect x="360" y="204" width="16" height="16"/>
			<rect x="280" y="204" width="16" height="16"/>
			<rect x="240" y="92" width="16" height="16"/>
			<rect x="280" y="116" width="16" height="16"/>
			<rect x="200" y="116" width="16" height="16"/>
			<rect x="160" y="180" width="16" height="16"/>
			<rect x="200" y="204" width="16" height="16"/>
			<rect x="120" y="204" width="16" height="16"/>
		</g>
	</g>
</g>
<g>
</g>
<g>
</g>
<g>
</g>
<g>
</g>
<g>
</g>
<g>
</g>
<g>
</g>
<g>
</g>
<g>
</g>
<g>
</g>
<g>
</g>
<g>
</g>
<g>
</g>
<g>
</g>
<g>
</g>
</svg>
