<?xml version="1.0" encoding="iso-8859-1"?>
<!-- Generator: Adobe Illustrator 19.0.0, SVG Export Plug-In . SVG Version: 6.00 Build 0)  -->
<svg xmlns="http://www.w3.org/2000/svg" xmlns:xlink="http://www.w3.org/1999/xlink" version="1.1" id="Capa_1" x="0px" y="0px" viewBox="0 0 496 496" style="enable-background:new 0 0 496 496;" xml:space="preserve">
<g>
	<g>
		<path d="M424,384h-28.232c2.624-3.168,5.032-6.52,7.2-10.056C415.2,369.44,424,357.776,424,344v-2.264    c0-27.112-8.992-44.296-25.6-66.544C381.6,252.824,355.944,240,328,240c-4.504,0-8.896,0.448-13.216,1.104    c2.976-3.472,5.784-7.104,8.216-11.056c12.24-4.496,21-16.264,21-30.048v-2.272c0-27.104-8.992-44.288-25.6-66.544    c-6.352-8.448-13.968-15.528-22.496-21.08C295.016,87.4,278.32,68.72,256.512,64.792C260.064,37.32,283.568,16,312,16h16V0h-16    c-37.224,0-67.944,28.4-71.632,64.664c-22.296,3.584-39.464,22.528-40.288,45.624C175.992,126,160,153.152,160,184    c0,21.784,8,41.712,21.168,57.096C176.856,240.448,172.488,240,168,240c-27.944,0-53.6,12.824-70.416,35.2    C80.992,297.44,72,314.624,72,341.736V344c0,13.776,8.792,25.44,21.024,29.936c2.168,3.544,4.576,6.888,7.2,10.064H72    c-17.648,0-32,14.352-32,32s14.352,32,32,32h24v48h304v-48h24c17.648,0,32-14.352,32-32S441.648,384,424,384z M328,256    c22.856,0,43.856,10.496,57.584,28.784C400.456,304.688,408,318.96,408,341.736V344c0,8.824-7.176,16-16,16    c-8.824,0-16-7.176-16-16v-28c0-11.032-8.968-20-20-20c-11.032,0-20,8.968-20,20v16c0,6.616-5.384,12-12,12    c-6.616,0-12-5.384-12-12v-36h-16v36c0,15.44,12.56,28,28,28s28-12.56,28-28v-16c0-2.2,1.8-4,4-4s4,1.8,4,4v28    c0,14.456,9.696,26.568,22.888,30.52c-2.928,3.456-6.2,6.616-9.76,9.48h-90.224C265.816,370.256,256,350.024,256,328    c0-28.2,16.336-52.592,40-64.4V280h16v-22.144C317.152,256.68,322.496,256,328,256z M172,360c15.44,0,28-12.56,28-28v-68.496    c23.688,11.808,40,36.28,40,64.496c0,22.024-9.824,42.248-26.912,56h-90.232c-3.56-2.872-6.816-6.032-9.744-9.48    C126.304,370.568,136,358.464,136,344v-28c0-2.2,1.8-4,4-4s4,1.8,4,4v16C144,347.44,156.56,360,172,360z M234.832,270.904    c4.312,0.648,8.68,1.096,13.168,1.096c4.456,0,8.84-0.44,13.168-1.104c-5.304,6.2-9.736,13.152-13.168,20.656    C244.568,284.048,240.136,277.104,234.832,270.904z M248,364.56c3.168,6.944,7.152,13.504,12.08,19.44h-24.16    C240.848,378.064,244.832,371.504,248,364.56z M305.584,140.776C320.456,160.688,328,174.968,328,197.728V200    c0,8.824-7.176,16-16,16c-8.824,0-16-7.176-16-16v-28c0-11.032-8.968-20-20-20c-11.032,0-20,8.968-20,20v16    c0,6.616-5.384,12-12,12c-6.616,0-12-5.384-12-12v-74.208c5.152-1.176,10.496-1.792,16-1.792    C270.856,112,291.848,122.496,305.584,140.776z M248,80c13.84,0,25.536,8.88,29.992,21.2C268.544,97.792,258.432,96,248,96    c-10.568,0-20.656,1.968-30.056,5.4C222.344,88.976,234.088,80,248,80z M176,184c0-28.208,16.312-52.688,40-64.496V188    c0,15.44,12.56,28,28,28s28-12.56,28-28v-16c0-2.2,1.8-4,4-4s4,1.8,4,4v28c0,14.456,9.64,26.704,22.832,30.664    C289.264,246.536,269.224,256,248,256C208.296,256,176,223.696,176,184z M88,344v-2.264c0-22.776,7.544-37.048,22.4-56.936    c13.744-18.304,34.744-28.8,57.6-28.8c5.504,0,10.848,0.616,16,1.792V332c0,6.616-5.384,12-12,12c-6.616,0-12-5.384-12-12v-16    c0-11.032-8.968-20-20-20s-20,8.968-20,20v28c0,8.824-7.176,16-16,16S88,352.824,88,344z M424,432h-56v16h16v32H112v-32h240v-16    H72c-8.824,0-16-7.176-16-16c0-8.824,7.176-16,16-16h352c8.824,0,16,7.176,16,16C440,424.824,432.824,432,424,432z"/>
	</g>
</g>
<g>
</g>
<g>
</g>
<g>
</g>
<g>
</g>
<g>
</g>
<g>
</g>
<g>
</g>
<g>
</g>
<g>
</g>
<g>
</g>
<g>
</g>
<g>
</g>
<g>
</g>
<g>
</g>
<g>
</g>
</svg>
