<?xml version="1.0" encoding="iso-8859-1"?>
<!-- Generator: Adobe Illustrator 19.0.0, SVG Export Plug-In . SVG Version: 6.00 Build 0)  -->
<svg xmlns="http://www.w3.org/2000/svg" xmlns:xlink="http://www.w3.org/1999/xlink" version="1.1" id="Capa_1" x="0px" y="0px" viewBox="0 0 496 496" style="enable-background:new 0 0 496 496;" xml:space="preserve">
<g>
	<g>
		<g>
			<rect x="160" y="320" width="16" height="16"/>
			<rect x="192" y="344" width="16" height="16"/>
			<rect x="240" y="312" width="16" height="16"/>
			<rect x="264" y="344" width="16" height="16"/>
			<rect x="312" y="328" width="16" height="16"/>
			<rect x="136" y="352" width="16" height="16"/>
			<rect x="344" y="352" width="16" height="16"/>
			<path d="M370.008,274.328c13.544-15.216,21.88-35.056,21.992-56.8c0-0.512-0.032-1.016-0.032-1.52H392     c0-0.392-0.056-0.768-0.056-1.16C391.6,132.6,356.216,60.184,289.392,5.304C285.224,1.88,279.912,0,274.432,0     c-8.72,0-16.728,4.536-20.904,11.832c-6.664,11.656-20.72,24.232-41.768,37.376c-58.736,36.712-55.056,80.336-52.336,93.464     c-0.032,0.024-0.064,0.048-0.096,0.072c-2.968,1.976-5.784,4.16-8.48,6.472c-0.552,0.472-1.064,0.968-1.6,1.456     c-2.176,1.952-4.24,4.016-6.208,6.176c-0.456,0.504-0.928,0.992-1.368,1.504c-4.712,5.416-8.768,11.408-12.056,17.864     c-0.128,0.248-0.232,0.496-0.36,0.736c-1.512,3.032-2.84,6.16-3.992,9.376c-0.12,0.336-0.248,0.656-0.36,0.992     c-2.336,6.76-3.896,13.864-4.52,21.248c-0.072,0.792-0.072,1.592-0.12,2.384C120.16,212.64,120,214.304,120,216h0.2     c0,1.648-0.144,3.28-0.056,4.936c1.08,19.688,8.856,37.52,21.048,51.608C62.424,278.136,0,343.84,0,424c0,39.704,32.296,72,72,72     h352c39.704,0,72-32.296,72-72C496,349.288,441.904,286.704,370.008,274.328z M136.104,220.064     c-0.176-3.272-0.08-6.512,0.184-9.728c0.024-0.32,0.016-0.656,0.048-0.976c0.312-3.272,0.848-6.496,1.592-9.656     c0.064-0.28,0.144-0.56,0.216-0.84c0.776-3.136,1.728-6.216,2.912-9.208c0.008-0.024,0.016-0.048,0.024-0.072     c2.448-6.176,5.768-11.976,9.8-17.256c0.16-0.216,0.312-0.432,0.48-0.64c2-2.56,4.168-4.992,6.512-7.272     c0.152-0.152,0.32-0.288,0.48-0.432c2.152-2.056,4.456-3.968,6.864-5.76c0.392-0.296,0.776-0.592,1.176-0.88     c2.616-1.864,5.36-3.576,8.248-5.096c9.984-5.24,21.32-8.248,33.36-8.248v-16c-11.888,0-23.224,2.4-33.584,6.696     c-1.208-13.36,1.632-44.288,45.824-71.904c23.304-14.568,39.176-29.032,47.168-43c2.136-3.72,8.328-5,11.824-2.112     c46.752,38.4,77.144,85.848,89.888,139.352C353.008,139.248,329.824,128,304,128v16c39.328,0,71.344,31.712,71.944,70.896     c0,0.848,0.064,1.688,0.056,2.544c-0.2,38.904-32.496,70.56-72,70.56h-29.808C287.528,276.264,296,259.12,296,240     c0-35.288-28.712-64-64-64v16c26.472,0,48,21.528,48,48s-21.528,48-48,48h-21.408C170.92,288,138.2,258.16,136.104,220.064z      M424,480H72c-30.872,0-56-25.128-56-56c0-74.992,61.008-136,136-136h6.592c14.76,10.048,32.672,16,52.008,16H304     c18.56,0,35.784-5.776,50.016-15.544C424.848,293.616,480,352.624,480,424C480,454.872,454.872,480,424,480z"/>
		</g>
	</g>
</g>
<g>
</g>
<g>
</g>
<g>
</g>
<g>
</g>
<g>
</g>
<g>
</g>
<g>
</g>
<g>
</g>
<g>
</g>
<g>
</g>
<g>
</g>
<g>
</g>
<g>
</g>
<g>
</g>
<g>
</g>
</svg>
