<?xml version="1.0" encoding="iso-8859-1"?>
<!-- Generator: Adobe Illustrator 19.0.0, SVG Export Plug-In . SVG Version: 6.00 Build 0)  -->
<svg xmlns="http://www.w3.org/2000/svg" xmlns:xlink="http://www.w3.org/1999/xlink" version="1.1" id="Capa_1" x="0px" y="0px" viewBox="0 0 496.008 496.008" style="enable-background:new 0 0 496.008 496.008;" xml:space="preserve">
<g>
	<g>
		<path d="M424.004,384H315.476c50.008-24.912,84.528-76.44,84.528-136c0-53.232-28.232-102.864-73.784-130.28    c-0.04-0.128-0.064-0.264-0.112-0.392c10.904-8.8,17.896-22.256,17.896-37.328c0-20.264-12.64-37.6-30.44-44.624    C322.324,23.64,336.268,16,352.004,16V0c-23.64,0-44.28,12.92-55.36,32.032c-0.216,0-0.424-0.032-0.64-0.032    c-6.344,0-12.392,1.264-17.944,3.512c-4.56-15.728-16.424-26.984-22.256-31.656C252.708,1.368,248.764,0,244.716,0h-1.608    c-9.744,0-17.584,7.704-17.832,17.544c-0.2,7.528-3.952,12.248-11.808,14.864c-15.152,5.048-24.504,18.816-22.248,32.728    c0.376,2.296,1.2,4.664,2.36,6.984c-16.312,0.896-30.256,10.68-37.08,24.608l-14.216,4.736    c-22.896,7.64-38.28,28.992-38.28,53.136v44.864c-5.256,15.608-8,31.912-8,48.544c0,59.56,34.52,111.088,84.528,136H72.004    c-17.648,0-32,14.352-32,32s14.352,32,32,32h24v48h304v-48h24c17.648,0,32-14.352,32-32S441.652,384,424.004,384z M326.54,137.048    c33.536,23.808,54.752,61.8,57.192,102.952h-32.136c-2.616-34.136-21.752-63.64-49.448-80.624    C313.86,157.08,323.172,148.344,326.54,137.048z M289.956,48.608c-1.232,4.944-1.952,10.08-1.952,15.392v8h16v-8    c0-4.944,0.752-9.704,2.144-14.2c12.656,4.272,21.856,16.12,21.856,30.2c0,17.648-14.352,32-32,32s-32-14.352-32-32    C264.004,64.424,275.196,51.456,289.956,48.608z M196.004,88h44V72h-16c-9.68,0-16.024-3.52-16.984-9.424    c-0.856-5.256,2.832-12.096,11.512-14.992c14.288-4.76,22.36-15.288,22.736-29.632C241.3,16.84,242.092,16,243.116,16h1.608    c0.304,0,0.728,0.056,1.08,0.336c5.064,4.064,16.208,14.568,17.872,28.296c-9.608,8.776-15.672,21.36-15.672,35.368    c0,26.472,21.528,48,48,48c5.52,0,10.808-0.984,15.752-2.712c0.152,0.896,0.248,1.8,0.248,2.712c0,8.824-7.176,16-16,16h-100    c-15.44,0-28-12.56-28-28S180.564,88,196.004,88z M248.004,208c22.056,0,40,17.944,40,40c0,22.056-17.944,40-40,40    c-1.096,0-2.16-0.184-3.24-0.272c2.072-4.832,3.24-10.144,3.24-15.728V208z M232.004,160v112c0,13.232-10.768,24-24,24    s-24-10.768-24-24v-56v-57.704c3.824,1.088,7.832,1.704,12,1.704H232.004z M120.004,154.6c0-17.248,10.992-32.496,27.344-37.952    l4.696-1.568c0,0.312-0.04,0.608-0.04,0.92c0,13.632,6.232,25.84,16,33.912V216c0,13.232-10.768,24-24,24s-24-10.768-24-24V154.6z     M112.004,248c0-2.632,0.184-5.24,0.328-7.848C119.652,249.72,131.06,256,144.004,256c0.136,0,0.264-0.04,0.4-0.04    C148.5,309.584,193.34,352,248.004,352c18.288,0,36.272-4.816,52.008-13.92l-8.016-13.84C278.7,331.928,263.484,336,248.004,336    c-47.008,0-85.416-37.08-87.776-83.512c2.792-1.248,5.36-2.864,7.776-4.688V272c0,22.056,17.944,40,40,40    c10.016,0,19.08-3.832,26.104-9.944c4.536,1.16,9.152,1.944,13.896,1.944c30.88,0,56-25.128,56-56c0-30.88-25.12-56-56-56v-32    c48.52,0,88,39.48,88,88c0,25.936-11.368,50.44-31.192,67.208l10.336,12.216c21.368-18.08,34.296-43.784,36.424-71.432h32.032    C379.42,327.264,320.292,384,248.004,384C173.012,384,112.004,322.992,112.004,248z M424.004,432h-56v16h16v32h-272v-32h240v-16    h-280c-8.824,0-16-7.176-16-16c0-8.824,7.176-16,16-16h352c8.824,0,16,7.176,16,16C440.004,424.824,432.828,432,424.004,432z"/>
	</g>
</g>
<g>
</g>
<g>
</g>
<g>
</g>
<g>
</g>
<g>
</g>
<g>
</g>
<g>
</g>
<g>
</g>
<g>
</g>
<g>
</g>
<g>
</g>
<g>
</g>
<g>
</g>
<g>
</g>
<g>
</g>
</svg>
