<?xml version="1.0" encoding="iso-8859-1"?>
<!-- Generator: Adobe Illustrator 19.0.0, SVG Export Plug-In . SVG Version: 6.00 Build 0)  -->
<svg xmlns="http://www.w3.org/2000/svg" xmlns:xlink="http://www.w3.org/1999/xlink" version="1.1" id="Capa_1" x="0px" y="0px" viewBox="0 0 496 496" style="enable-background:new 0 0 496 496;" xml:space="preserve">
<g>
	<g>
		<path d="M495.632,272c-1.792-26.512-12.456-49.512-31.976-68.384c-34.32-33.192-89.632-48.016-135.72-54.592    C332.888,143.384,336,136.08,336,128c0-3.68-0.688-7.272-1.896-10.672C345.008,108.528,352,95.072,352,80    c0-26.472-21.528-48-48-48c-6.344,0-12.392,1.264-17.944,3.512c-4.56-15.736-16.432-26.984-22.256-31.656    C260.712,1.368,256.768,0,252.712,0h-1.6c-9.744,0-17.576,7.704-17.832,17.536c-0.192,7.528-3.952,12.256-11.808,14.872    c-15.152,5.048-24.504,18.816-22.248,32.728c0.376,2.296,1.2,4.664,2.36,6.984C178.448,73.392,160,92.56,160,116    c0,12.712,5.456,24.152,14.104,32.192c-47.208,6.128-105.936,20.776-141.76,55.424C12.832,222.488,2.16,245.488,0.368,272H0v96h8    c6.592,0,12.888-1.208,18.768-3.304l23.64,100.464C54.68,483.32,70.688,496,89.344,496h317.312    c18.656,0,34.664-12.68,38.936-30.84l23.632-100.464C475.104,366.792,481.408,368,488,368h8v-96H495.632z M452.536,215.12    c16.272,15.744,25.336,34.864,27.096,56.88H448l-0.072-1.056c-0.176-1.32-4.632-32.736-31.88-64.176    c-8.56-9.872-20.112-20.376-35.32-29.936C407.96,185.032,433.96,197.152,452.536,215.12z M431.896,272h-80.088    c-0.296-5.896-0.92-11.696-1.856-17.32l-15.784,2.64c0.792,4.76,1.336,9.68,1.616,14.68H256V160.648    c11.832,5.152,58.76,28.56,74.632,81.456l15.328-4.6c-10.976-36.568-34.536-60.32-54.432-74.712    C412.048,179,430.072,261.312,431.896,272z M432,288v24c0,22.056-17.944,40-40,40c-22.056,0-40-17.944-40-40v-24H432z M336,288v24    c0,22.056-17.944,40-40,40c-22.056,0-40-17.944-40-40v-24H336z M304,48c17.648,0,32,14.352,32,32s-14.352,32-32,32    s-32-14.352-32-32S286.352,48,304,48z M204,88h44V72h-16c-9.68,0-16.032-3.52-16.984-9.424    c-0.848-5.256,2.832-12.096,11.512-14.992c14.28-4.76,22.36-15.28,22.744-29.632c0.024-1.112,0.824-1.952,1.84-1.952h1.6    c0.296,0,0.736,0.056,1.088,0.336c5.056,4.056,16.2,14.552,17.864,28.288C262.064,53.408,256,65.992,256,80    c0,26.472,21.528,48,48,48c5.52,0,10.808-0.984,15.752-2.712c0.152,0.896,0.248,1.8,0.248,2.712c0,8.824-7.176,16-16,16h-37.952    c-9.928-0.208-16.416-0.056-18.04,0c-1.608-0.056-8.272-0.216-18.448,0H204c-15.44,0-28-12.56-28-28S188.56,88,204,88z     M160.208,272c3.88-82.472,67.144-107.456,79.792-111.624V272H160.208z M240,288v24c0,22.056-17.944,40-40,40    c-22.056,0-40-17.944-40-40v-24H240z M200.328,163.424c-3.144,2.272-6.344,4.752-9.552,7.52    c-20.304,17.536-44.28,49.12-46.552,101.056h-80.12C65.936,261.352,83.648,180.952,200.328,163.424z M144,288v24    c0,22.056-17.944,40-40,40c-22.056,0-40-17.944-40-40v-24H144z M43.456,215.136c18.696-18.096,44.944-30.264,72.408-38.472    c-59.192,37.328-67.68,93.432-67.792,94.28L48.064,272H48H16.368C18.128,249.992,27.184,230.872,43.456,215.136z M16,351.192V288    h32v24C48,331.32,34.232,347.48,16,351.192z M448.248,384H432v16h12.48l-14.464,61.496c-2.56,10.896-12.168,18.504-23.36,18.504    H89.344c-11.192,0-20.8-7.608-23.36-18.504L51.52,400H416v-16H47.752l-6.384-27.136C47.24,352.488,52.216,347,56,340.696    C65.8,357.016,83.616,368,104,368c20.384,0,38.2-10.984,48-27.304c9.8,16.32,27.616,27.304,48,27.304    c20.384,0,38.2-10.984,48-27.304c9.8,16.32,27.616,27.304,48,27.304c20.384,0,38.2-10.984,48-27.304    c9.8,16.32,27.616,27.304,48,27.304c20.384,0,38.2-10.984,48-27.304c3.784,6.304,8.76,11.792,14.632,16.168L448.248,384z     M480,351.192c-18.232-3.712-32-19.88-32-39.192v-24h32V351.192z"/>
	</g>
</g>
<g>
</g>
<g>
</g>
<g>
</g>
<g>
</g>
<g>
</g>
<g>
</g>
<g>
</g>
<g>
</g>
<g>
</g>
<g>
</g>
<g>
</g>
<g>
</g>
<g>
</g>
<g>
</g>
<g>
</g>
</svg>
