<?xml version="1.0" encoding="iso-8859-1"?>
<!-- Generator: Adobe Illustrator 19.0.0, SVG Export Plug-In . SVG Version: 6.00 Build 0)  -->
<svg xmlns="http://www.w3.org/2000/svg" xmlns:xlink="http://www.w3.org/1999/xlink" version="1.1" id="Capa_1" x="0px" y="0px" viewBox="0 0 496 496" style="enable-background:new 0 0 496 496;" xml:space="preserve">
<g>
	<g>
		<g>
			<path d="M472,261.124h-56v-56c0-22.056-17.944-40-40-40h-0.208c5.08-6.704,8.208-14.96,8.208-24c0-22.056-17.944-40-40-40     c-13.128,0-24.704,6.448-32,16.248c-6.656-8.944-16.912-14.912-28.632-15.904C291.184,92.924,296,81.588,296,69.124     c0-17.688-7.92-34.184-21.744-45.24L248,2.876l-26.256,21.008C207.92,34.94,200,51.436,200,69.124     c0,12.464,4.816,23.8,12.632,32.344c-11.72,1-21.976,6.968-28.632,15.904c-7.296-9.8-18.872-16.248-32-16.248     c-22.056,0-40,17.944-40,40c0,9.04,3.128,17.296,8.208,24H120c-22.056,0-40,17.944-40,40v56H24c-13.232,0-24,10.768-24,24v16v48     v120c0,13.232,10.768,24,24,24h448c13.232,0,24-10.768,24-24v-120v-40v-24C496,271.892,485.232,261.124,472,261.124z      M344,117.124c13.232,0,24,10.768,24,24s-10.768,24-24,24s-24-10.768-24-24S330.768,117.124,344,117.124z M312.008,164.876     c0.056,0.088,0.128,0.16,0.2,0.248H311.8C311.864,165.036,311.944,164.964,312.008,164.876z M304,141.124     c0,13.232-10.768,24-24,24s-24-10.768-24-24s10.768-24,24-24S304,127.892,304,141.124z M231.744,36.38L240,29.772v23.352h16     V29.772l8.256,6.608C274.264,44.38,280,56.316,280,69.124c0,17.648-14.352,32-32,32s-32-14.352-32-32     C216,56.316,221.736,44.38,231.744,36.38z M248,117.372c-0.064-0.088-0.144-0.168-0.216-0.256c0.072,0,0.144,0.008,0.216,0.008     s0.144-0.008,0.216-0.008C248.144,117.204,248.064,117.284,248,117.372z M248.208,165.124H247.8     c0.064-0.088,0.144-0.16,0.208-0.248C248.064,164.964,248.136,165.036,248.208,165.124z M216,117.124c13.232,0,24,10.768,24,24     s-10.768,24-24,24s-24-10.768-24-24S202.768,117.124,216,117.124z M184.008,164.876c0.056,0.088,0.128,0.16,0.2,0.248H183.8     C183.864,165.036,183.944,164.964,184.008,164.876z M152,117.124c13.232,0,24,10.768,24,24s-10.768,24-24,24s-24-10.768-24-24     S138.768,117.124,152,117.124z M96,205.124c0-13.232,10.768-24,24-24h256c13.232,0,24,10.768,24,24v8H96V205.124z M96,229.124     h304v32H96V229.124z M480,469.124c0,4.408-3.584,8-8,8H24c-4.416,0-8-3.592-8-8v-80.888c10.176,10.408,24.336,16.888,40,16.888     c15.856,0,30.2-6.632,40.408-17.264c3.336,27.712,26.992,49.264,55.592,49.264c28.6,0,52.256-21.552,55.592-49.264     c10.208,10.632,24.552,17.264,40.408,17.264s30.2-6.632,40.408-17.264c3.336,27.712,26.992,49.264,55.592,49.264     c28.6,0,52.256-21.552,55.592-49.264c10.208,10.632,24.552,17.264,40.408,17.264c15.664,0,29.824-6.48,40-16.888V469.124z      M480,309.124v40c0,22.056-17.944,40-40,40c-22.056,0-40-17.944-40-40v-24h-16v24v8v24c0,22.056-17.944,40-40,40     c-22.056,0-40-17.944-40-40v-32h-16c0,22.056-17.944,40-40,40c-22.056,0-40-17.944-40-40v-24h-16v24v8v24     c0,22.056-17.944,40-40,40c-22.056,0-40-17.944-40-40v-32H96c0,22.056-17.944,40-40,40c-22.056,0-40-17.944-40-40v-48v-16     c0-4.408,3.584-8,8-8h56h336h56c4.416,0,8,3.592,8,8V309.124z"/>
			<rect x="448" y="293.124" width="16" height="16"/>
			<rect x="416" y="309.124" width="16" height="16"/>
			<rect x="384" y="293.124" width="16" height="16"/>
			<rect x="352" y="309.124" width="16" height="16"/>
			<rect x="320" y="293.124" width="16" height="16"/>
			<rect x="288" y="309.124" width="16" height="16"/>
			<rect x="256" y="293.124" width="16" height="16"/>
			<rect x="224" y="309.124" width="16" height="16"/>
			<rect x="192" y="293.124" width="16" height="16"/>
			<rect x="160" y="309.124" width="16" height="16"/>
			<rect x="128" y="293.124" width="16" height="16"/>
			<rect x="96" y="309.124" width="16" height="16"/>
			<rect x="64" y="293.124" width="16" height="16"/>
			<rect x="32" y="309.124" width="16" height="16"/>
		</g>
	</g>
</g>
<g>
</g>
<g>
</g>
<g>
</g>
<g>
</g>
<g>
</g>
<g>
</g>
<g>
</g>
<g>
</g>
<g>
</g>
<g>
</g>
<g>
</g>
<g>
</g>
<g>
</g>
<g>
</g>
<g>
</g>
</svg>
