<?xml version="1.0" encoding="iso-8859-1"?>
<!-- Generator: Adobe Illustrator 19.0.0, SVG Export Plug-In . SVG Version: 6.00 Build 0)  -->
<svg xmlns="http://www.w3.org/2000/svg" xmlns:xlink="http://www.w3.org/1999/xlink" version="1.1" id="Capa_1" x="0px" y="0px" viewBox="0 0 496 496" style="enable-background:new 0 0 496 496;" xml:space="preserve">
<g>
	<g>
		<g>
			<path d="M173.44,188c0-11.024-8.968-20-20-20s-20,8.976-20,20s8.968,20,20,20S173.44,199.024,173.44,188z M153.44,192     c-2.2,0-4-1.792-4-4s1.8-4,4-4s4,1.792,4,4S155.64,192,153.44,192z"/>
			<path d="M257.44,168c-11.032,0-20,8.976-20,20s8.968,20,20,20c11.032,0,20-8.976,20-20S268.472,168,257.44,168z M257.44,192     c-2.2,0-4-1.792-4-4s1.8-4,4-4s4,1.792,4,4S259.64,192,257.44,192z"/>
			<path d="M229.44,263.976c0,4.424-3.6,8.024-8.024,8.024h-31.952c-4.424,0-8.024-3.6-8.024-8.024V256h-16v7.976     c0,13.248,10.776,24.024,24.024,24.024h31.952c13.248,0,24.024-10.776,24.024-24.024V256h-16V263.976z"/>
			<path d="M474.128,288c-5.16,0-10,2.008-13.656,5.656l-0.976,0.976c-6.488-4.304-14.088-6.632-22.056-6.632     c-10.688,0-20.728,4.16-28.28,11.712c-13.656,13.656-15.352,34.816-5.088,50.336L402.128,352H349.44v12.112     c-9.456-7.592-20.208-13.36-31.8-17.04c34.856-9.12,51.32-19.8,52.24-20.416l3.56-2.376V168c0-92.64-75.368-168-168-168     s-168,75.36-168,168v156.28l3.56,2.376c0.92,0.616,17.376,11.288,52.2,20.408c-30.216,9.712-54.656,33.784-64.264,64.544     L2.56,496h302.192h92.688h96V307.312C493.44,296.664,484.776,288,474.128,288z M420.472,311.024     c7.096-7.096,18.28-8.552,27.168-4.544l-31.784,31.784C411.632,329.36,413.104,318.392,420.472,311.024z M365.44,368h20.688     l-20.688,20.688V368z M53.44,315.384V168c0-83.816,68.184-152,152-152s152,68.184,152,152v147.384     c-9.064,4.856-35.616,17.104-82.232,23.872l-13.768-2.12v-8.288c26.92-15.624,46.784-42.072,53.488-73.4     c19.44-2.712,34.512-19.272,34.512-39.448c0-19.312-13.768-35.472-32-39.192V112h-16v26.52c-7.288-5.2-17.016-14.44-24.84-30.096     L274.384,104h-17.48l-2.328,3.88c-16.592,27.664-103.904,35.152-145.136,36.024V112h-16v64.808c-18.232,3.72-32,19.88-32,39.192     c0,20.176,15.072,36.736,34.512,39.448c6.704,31.328,26.568,57.776,53.488,73.4v8.288l-13.776,2.12     C89.032,332.48,62.48,320.224,53.44,315.384z M205.44,328c-52.936,0-96-43.064-96-96v-72.088     c30.504-0.6,127.392-5.184,155.584-39.192c12.432,21.96,28.224,32.28,36.416,36.456V232C301.44,284.936,258.376,328,205.44,328z      M245.44,336.488v3.768l-40,33.336l-40-33.336v-3.768c12.44,4.784,25.896,7.512,40,7.512S233,341.272,245.44,336.488z      M205.44,394.416l50.352-41.96l14.488,2.232l0.024,0.176L205.44,413.24l-64.864-58.376l0.024-0.176l14.488-2.232L205.44,394.416z      M317.104,238.632c0.128-2.208,0.336-4.392,0.336-6.632v-38.528c9.288,3.312,16,12.112,16,22.528     C333.44,226.536,326.568,235.416,317.104,238.632z M93.776,238.632C84.312,235.416,77.44,226.536,77.44,216     c0-10.416,6.712-19.216,16-22.528V232C93.44,234.24,93.648,236.424,93.776,238.632z M292.072,462.048l-0.984,0.984     c-3.584,3.6-5.648,8.576-5.648,13.656c0,1.136,0.144,2.232,0.336,3.312H102.504l6.872-55.008l-15.872-1.984L86.376,480H24.32     l19.88-63.624c9.352-29.904,35.4-52.312,66.368-57.072l9.632-1.48l-0.112,0.12l85.352,76.816l85.352-76.816l-0.112-0.12     l9.632,1.48c19.088,2.936,36.344,12.448,49.128,26.8v18.576l-1.944,1.944c-6.488-4.296-14.088-6.624-22.056-6.624     c-10.688,0-20.728,4.16-28.28,11.712C283.504,425.368,281.808,446.528,292.072,462.048z M335.64,418.488l-31.784,31.784     c-4.224-8.912-2.752-19.88,4.616-27.24C315.56,415.944,326.752,414.48,335.64,418.488z M477.44,480h-80h-92.688     c-1.824,0-3.312-1.488-3.312-3.312c0-0.872,0.352-1.728,0.968-2.344l169.368-169.368c0.632-0.632,1.472-0.976,2.352-0.976     c1.824,0,3.312,1.488,3.312,3.312V480z"/>
		</g>
	</g>
</g>
<g>
</g>
<g>
</g>
<g>
</g>
<g>
</g>
<g>
</g>
<g>
</g>
<g>
</g>
<g>
</g>
<g>
</g>
<g>
</g>
<g>
</g>
<g>
</g>
<g>
</g>
<g>
</g>
<g>
</g>
</svg>
