<?xml version="1.0" encoding="iso-8859-1"?>
<!-- Generator: Adobe Illustrator 19.0.0, SVG Export Plug-In . SVG Version: 6.00 Build 0)  -->
<svg xmlns="http://www.w3.org/2000/svg" xmlns:xlink="http://www.w3.org/1999/xlink" version="1.1" id="Capa_1" x="0px" y="0px" viewBox="0 0 496 496" style="enable-background:new 0 0 496 496;" xml:space="preserve">
<g>
	<g>
		<g>
			<path d="M458.8,18.176C456.12,7.48,446.544,0,435.512,0H60.496C49.456,0,39.88,7.48,37.208,18.176L0.24,166.064L0,496h496V168     L458.8,18.176z M16,224h16v-16H16v-16h48v16H48v16h16v16H16V224z M320,480H176V352h144V480z M320,336H176v-16h144V336z M480,480     H336V304H160v176H16V256h48.808c3.72,18.232,19.872,32,39.192,32h288c19.312,0,35.472-13.768,39.192-32H480V480z M80,248V72     c0-13.232,10.768-24,24-24h288c13.232,0,24,10.768,24,24v176c0,13.232-10.768,24-24,24H104C90.768,272,80,261.232,80,248z      M480,208h-16v16h16v16h-48v-16h16v-16h-16v-16h48V208z M480,176h-48V72c0-22.056-17.944-40-40-40H104c-22.056,0-40,17.944-40,40     v104H16v-7.008L52.728,22.064C53.624,18.496,56.816,16,60.496,16h375.016c3.68,0,6.872,2.496,7.76,6.064L480,168.992V176z"/>
			<path d="M40,400h96v-96H40V400z M96,320h24v64H96V320z M56,320h24v64H56V320z"/>
			<path d="M360,400h96v-96h-96V400z M416,320h24v64h-24V320z M376,320h24v64h-24V320z"/>
			<rect x="208" y="192" width="16" height="16"/>
			<rect x="240" y="208" width="16" height="16"/>
			<rect x="272" y="192" width="16" height="16"/>
			<path d="M156.968,188.048l8.776,48.248c2.08,11.416,12,19.704,23.608,19.704h117.296c11.608,0,21.528-8.288,23.608-19.704     l8.776-48.248C356.056,180.664,368,163.704,368,144c0-26.472-21.528-48-48-48c-5.176,0-10.272,0.864-15.216,2.592     C293.904,77.6,272.04,64,248,64c-24.04,0-45.904,13.6-56.784,34.592C186.272,96.864,181.176,96,176,96c-26.472,0-48,21.528-48,48     C128,163.704,139.944,180.664,156.968,188.048z M314.512,233.432c-0.688,3.808-4,6.568-7.864,6.568H189.352     c-3.864,0-7.176-2.76-7.864-6.568l-7.552-41.536c0.688,0.032,1.368,0.104,2.064,0.104c1.56,0,3.12-0.08,4.664-0.232     c1.44-0.136,2.856-0.36,4.256-0.624c0.064-0.008,0.128-0.016,0.184-0.032c9.168-1.768,17.392-6.16,23.912-12.352     C220.144,187.344,233.704,192,248,192c14.312,0,27.888-4.664,39.024-13.272C295.88,187.152,307.704,192,320,192     c0.696,0,1.376-0.072,2.072-0.104L314.512,233.432z M176,112c5.264,0,10.456,1.4,15.424,4.168l8.248,4.584l3.176-8.88     C209.664,92.808,227.808,80,248,80c18.096,0,34.472,10.328,42.6,26.184C279.08,115.144,272,128.968,272,144h16     c0-10.72,5.392-20.536,14.048-26.424l2.528-1.408C309.544,113.4,314.736,112,320,112c17.648,0,32,14.352,32,32s-14.352,32-32,32     c-10.264,0-19.664-4.832-25.808-13.256l-5.528-7.584l-6.616,6.664C272.968,170.96,260.872,176,248,176     c-10.776,0-20.976-3.568-29.344-10.08C222.048,159.344,224,151.904,224,144h-16c0,6.408-1.936,12.36-5.2,17.376l-1,1.368     c-1.416,1.936-3.04,3.632-4.768,5.176c-0.36,0.32-0.744,0.624-1.12,0.928c-1.384,1.128-2.872,2.096-4.408,2.968     c-0.616,0.344-1.224,0.712-1.872,1.016c-1.48,0.712-3.024,1.24-4.6,1.712c-0.68,0.2-1.328,0.472-2.024,0.632     C180.736,175.68,178.4,176,176,176c-17.648,0-32-14.352-32-32S158.352,112,176,112z"/>
			<rect x="344" y="240" width="16" height="16"/>
			<rect x="376" y="240" width="16" height="16"/>
			<rect x="104" y="240" width="16" height="16"/>
			<rect x="136" y="240" width="16" height="16"/>
		</g>
	</g>
</g>
<g>
</g>
<g>
</g>
<g>
</g>
<g>
</g>
<g>
</g>
<g>
</g>
<g>
</g>
<g>
</g>
<g>
</g>
<g>
</g>
<g>
</g>
<g>
</g>
<g>
</g>
<g>
</g>
<g>
</g>
</svg>
